<mxfile host="Electron" agent="Mozilla/5.0 (Macintosh; Intel Mac OS X 10_15_7) AppleWebKit/537.36 (KHTML, like Gecko) draw.io/24.7.8 Chrome/128.0.6613.36 Electron/32.0.1 Safari/537.36" version="24.7.8">
  <diagram name="Page-1" id="njWKLxGfqIn3PL7Dao3R">
    <mxGraphModel dx="4220" dy="3077" grid="0" gridSize="10" guides="1" tooltips="1" connect="1" arrows="1" fold="1" page="0" pageScale="1" pageWidth="850" pageHeight="1100" math="0" shadow="0">
      <root>
        <mxCell id="0" />
        <mxCell id="1" parent="0" />
        <mxCell id="6AVHY_ROivwO887Ykwhk-42" value="" style="endArrow=none;html=1;rounded=1;entryX=0.5;entryY=1;entryDx=0;entryDy=0;exitX=0;exitY=0.5;exitDx=0;exitDy=0;edgeStyle=orthogonalEdgeStyle;curved=0;" parent="1" source="DaWMpuimovxNfzw2H3QX-4" target="DaWMpuimovxNfzw2H3QX-209" edge="1">
          <mxGeometry width="50" height="50" relative="1" as="geometry">
            <mxPoint x="711" y="731" as="sourcePoint" />
            <mxPoint x="761" y="681" as="targetPoint" />
            <Array as="points">
              <mxPoint x="119" y="376" />
              <mxPoint x="119" y="271" />
              <mxPoint x="928" y="271" />
            </Array>
          </mxGeometry>
        </mxCell>
        <mxCell id="DaWMpuimovxNfzw2H3QX-224" value="" style="rounded=1;whiteSpace=wrap;html=1;arcSize=3;shadow=1;strokeWidth=2;" parent="1" vertex="1">
          <mxGeometry x="-522" y="642.6" width="588" height="653" as="geometry" />
        </mxCell>
        <mxCell id="DaWMpuimovxNfzw2H3QX-193" value="" style="rounded=0;whiteSpace=wrap;html=1;strokeWidth=3;fillColor=#dae8fc;strokeColor=#6c8ebf;" parent="1" vertex="1">
          <mxGeometry x="-485.5" y="933.6" width="515" height="218" as="geometry" />
        </mxCell>
        <mxCell id="DaWMpuimovxNfzw2H3QX-182" value="" style="rounded=0;whiteSpace=wrap;html=1;strokeWidth=3;fillColor=none;fontColor=#FFFFFF;strokeColor=#999999;dashed=1;" parent="1" vertex="1">
          <mxGeometry x="254" y="418" width="231" height="383" as="geometry" />
        </mxCell>
        <mxCell id="DaWMpuimovxNfzw2H3QX-24" style="edgeStyle=orthogonalEdgeStyle;rounded=0;orthogonalLoop=1;jettySize=auto;html=1;entryX=0;entryY=0.5;entryDx=0;entryDy=0;" parent="1" source="DaWMpuimovxNfzw2H3QX-3" target="DaWMpuimovxNfzw2H3QX-23" edge="1">
          <mxGeometry relative="1" as="geometry" />
        </mxCell>
        <mxCell id="DaWMpuimovxNfzw2H3QX-26" style="edgeStyle=orthogonalEdgeStyle;rounded=0;orthogonalLoop=1;jettySize=auto;html=1;entryX=0;entryY=0.5;entryDx=0;entryDy=0;" parent="1" source="DaWMpuimovxNfzw2H3QX-3" target="DaWMpuimovxNfzw2H3QX-25" edge="1">
          <mxGeometry relative="1" as="geometry" />
        </mxCell>
        <mxCell id="DaWMpuimovxNfzw2H3QX-3" value="&lt;font face=&quot;Courier New&quot;&gt;&lt;b&gt;_C&lt;/b&gt;&lt;/font&gt;" style="rounded=0;whiteSpace=wrap;html=1;fontSize=20;align=left;spacingLeft=12;fillColor=#CCCCCC;strokeColor=none;" parent="1" vertex="1">
          <mxGeometry x="273" y="937" width="110" height="31" as="geometry" />
        </mxCell>
        <mxCell id="DaWMpuimovxNfzw2H3QX-6" style="edgeStyle=orthogonalEdgeStyle;rounded=0;orthogonalLoop=1;jettySize=auto;html=1;entryX=0;entryY=0.5;entryDx=0;entryDy=0;" parent="1" source="DaWMpuimovxNfzw2H3QX-4" target="DaWMpuimovxNfzw2H3QX-3" edge="1">
          <mxGeometry relative="1" as="geometry" />
        </mxCell>
        <mxCell id="DaWMpuimovxNfzw2H3QX-8" style="edgeStyle=orthogonalEdgeStyle;rounded=0;orthogonalLoop=1;jettySize=auto;html=1;entryX=0;entryY=0.5;entryDx=0;entryDy=0;" parent="1" source="DaWMpuimovxNfzw2H3QX-4" target="DaWMpuimovxNfzw2H3QX-7" edge="1">
          <mxGeometry relative="1" as="geometry" />
        </mxCell>
        <mxCell id="DaWMpuimovxNfzw2H3QX-10" style="edgeStyle=orthogonalEdgeStyle;rounded=0;orthogonalLoop=1;jettySize=auto;html=1;entryX=0;entryY=0.5;entryDx=0;entryDy=0;" parent="1" source="DaWMpuimovxNfzw2H3QX-4" target="DaWMpuimovxNfzw2H3QX-9" edge="1">
          <mxGeometry relative="1" as="geometry">
            <Array as="points">
              <mxPoint x="218" y="441" />
            </Array>
          </mxGeometry>
        </mxCell>
        <mxCell id="DaWMpuimovxNfzw2H3QX-12" style="edgeStyle=orthogonalEdgeStyle;rounded=0;orthogonalLoop=1;jettySize=auto;html=1;entryX=0;entryY=0.5;entryDx=0;entryDy=0;" parent="1" source="DaWMpuimovxNfzw2H3QX-4" target="DaWMpuimovxNfzw2H3QX-11" edge="1">
          <mxGeometry relative="1" as="geometry" />
        </mxCell>
        <mxCell id="DaWMpuimovxNfzw2H3QX-14" style="edgeStyle=orthogonalEdgeStyle;rounded=0;orthogonalLoop=1;jettySize=auto;html=1;entryX=0;entryY=0.5;entryDx=0;entryDy=0;" parent="1" source="DaWMpuimovxNfzw2H3QX-4" target="DaWMpuimovxNfzw2H3QX-13" edge="1">
          <mxGeometry relative="1" as="geometry">
            <Array as="points">
              <mxPoint x="218" y="525" />
            </Array>
          </mxGeometry>
        </mxCell>
        <mxCell id="DaWMpuimovxNfzw2H3QX-16" style="edgeStyle=orthogonalEdgeStyle;rounded=0;orthogonalLoop=1;jettySize=auto;html=1;entryX=0;entryY=0.5;entryDx=0;entryDy=0;" parent="1" source="DaWMpuimovxNfzw2H3QX-4" target="DaWMpuimovxNfzw2H3QX-15" edge="1">
          <mxGeometry relative="1" as="geometry">
            <Array as="points">
              <mxPoint x="218" y="567" />
            </Array>
          </mxGeometry>
        </mxCell>
        <mxCell id="DaWMpuimovxNfzw2H3QX-18" style="edgeStyle=orthogonalEdgeStyle;rounded=0;orthogonalLoop=1;jettySize=auto;html=1;entryX=0;entryY=0.5;entryDx=0;entryDy=0;" parent="1" source="DaWMpuimovxNfzw2H3QX-4" target="DaWMpuimovxNfzw2H3QX-17" edge="1">
          <mxGeometry relative="1" as="geometry" />
        </mxCell>
        <mxCell id="DaWMpuimovxNfzw2H3QX-20" style="edgeStyle=orthogonalEdgeStyle;rounded=0;orthogonalLoop=1;jettySize=auto;html=1;entryX=0;entryY=0.5;entryDx=0;entryDy=0;" parent="1" source="DaWMpuimovxNfzw2H3QX-4" target="DaWMpuimovxNfzw2H3QX-19" edge="1">
          <mxGeometry relative="1" as="geometry" />
        </mxCell>
        <mxCell id="DaWMpuimovxNfzw2H3QX-22" style="edgeStyle=orthogonalEdgeStyle;rounded=0;orthogonalLoop=1;jettySize=auto;html=1;entryX=0;entryY=0.5;entryDx=0;entryDy=0;" parent="1" source="DaWMpuimovxNfzw2H3QX-4" target="DaWMpuimovxNfzw2H3QX-21" edge="1">
          <mxGeometry relative="1" as="geometry" />
        </mxCell>
        <mxCell id="DaWMpuimovxNfzw2H3QX-68" style="edgeStyle=orthogonalEdgeStyle;rounded=0;orthogonalLoop=1;jettySize=auto;html=1;entryX=0;entryY=0.5;entryDx=0;entryDy=0;" parent="1" source="DaWMpuimovxNfzw2H3QX-4" target="DaWMpuimovxNfzw2H3QX-67" edge="1">
          <mxGeometry relative="1" as="geometry" />
        </mxCell>
        <mxCell id="DaWMpuimovxNfzw2H3QX-70" style="edgeStyle=orthogonalEdgeStyle;rounded=0;orthogonalLoop=1;jettySize=auto;html=1;entryX=0;entryY=0.5;entryDx=0;entryDy=0;" parent="1" source="DaWMpuimovxNfzw2H3QX-4" target="DaWMpuimovxNfzw2H3QX-69" edge="1">
          <mxGeometry relative="1" as="geometry" />
        </mxCell>
        <mxCell id="DaWMpuimovxNfzw2H3QX-4" value="&lt;font face=&quot;Courier New&quot; style=&quot;font-size: 21px;&quot;&gt;&lt;span style=&quot;font-size: 21px;&quot;&gt;torch&lt;/span&gt;&lt;/font&gt;" style="rounded=0;whiteSpace=wrap;html=1;fontSize=21;align=left;spacingLeft=12;fillColor=#FF3333;strokeColor=none;fontColor=#FFFFFF;fontStyle=1" parent="1" vertex="1">
          <mxGeometry x="163" y="360" width="110" height="31" as="geometry" />
        </mxCell>
        <mxCell id="DaWMpuimovxNfzw2H3QX-74" style="edgeStyle=orthogonalEdgeStyle;rounded=0;orthogonalLoop=1;jettySize=auto;html=1;entryX=0;entryY=0.5;entryDx=0;entryDy=0;" parent="1" source="DaWMpuimovxNfzw2H3QX-5" target="DaWMpuimovxNfzw2H3QX-73" edge="1">
          <mxGeometry relative="1" as="geometry" />
        </mxCell>
        <mxCell id="DaWMpuimovxNfzw2H3QX-76" style="edgeStyle=orthogonalEdgeStyle;rounded=0;orthogonalLoop=1;jettySize=auto;html=1;entryX=0;entryY=0.5;entryDx=0;entryDy=0;" parent="1" source="DaWMpuimovxNfzw2H3QX-5" target="DaWMpuimovxNfzw2H3QX-75" edge="1">
          <mxGeometry relative="1" as="geometry" />
        </mxCell>
        <mxCell id="DaWMpuimovxNfzw2H3QX-78" style="edgeStyle=orthogonalEdgeStyle;rounded=0;orthogonalLoop=1;jettySize=auto;html=1;entryX=0;entryY=0.5;entryDx=0;entryDy=0;" parent="1" source="DaWMpuimovxNfzw2H3QX-5" target="DaWMpuimovxNfzw2H3QX-77" edge="1">
          <mxGeometry relative="1" as="geometry" />
        </mxCell>
        <mxCell id="DaWMpuimovxNfzw2H3QX-80" style="edgeStyle=orthogonalEdgeStyle;rounded=0;orthogonalLoop=1;jettySize=auto;html=1;entryX=0;entryY=0.5;entryDx=0;entryDy=0;" parent="1" source="DaWMpuimovxNfzw2H3QX-5" target="DaWMpuimovxNfzw2H3QX-79" edge="1">
          <mxGeometry relative="1" as="geometry" />
        </mxCell>
        <mxCell id="DaWMpuimovxNfzw2H3QX-82" style="edgeStyle=orthogonalEdgeStyle;rounded=0;orthogonalLoop=1;jettySize=auto;html=1;entryX=0;entryY=0.5;entryDx=0;entryDy=0;" parent="1" source="DaWMpuimovxNfzw2H3QX-5" target="DaWMpuimovxNfzw2H3QX-81" edge="1">
          <mxGeometry relative="1" as="geometry" />
        </mxCell>
        <mxCell id="DaWMpuimovxNfzw2H3QX-84" style="edgeStyle=orthogonalEdgeStyle;rounded=0;orthogonalLoop=1;jettySize=auto;html=1;entryX=0;entryY=0.5;entryDx=0;entryDy=0;" parent="1" source="DaWMpuimovxNfzw2H3QX-5" target="DaWMpuimovxNfzw2H3QX-83" edge="1">
          <mxGeometry relative="1" as="geometry" />
        </mxCell>
        <mxCell id="DaWMpuimovxNfzw2H3QX-87" style="edgeStyle=orthogonalEdgeStyle;rounded=0;orthogonalLoop=1;jettySize=auto;html=1;entryX=0;entryY=0.5;entryDx=0;entryDy=0;" parent="1" source="DaWMpuimovxNfzw2H3QX-5" target="DaWMpuimovxNfzw2H3QX-85" edge="1">
          <mxGeometry relative="1" as="geometry" />
        </mxCell>
        <mxCell id="DaWMpuimovxNfzw2H3QX-102" style="edgeStyle=orthogonalEdgeStyle;rounded=0;orthogonalLoop=1;jettySize=auto;html=1;entryX=0;entryY=0.5;entryDx=0;entryDy=0;" parent="1" source="DaWMpuimovxNfzw2H3QX-5" target="DaWMpuimovxNfzw2H3QX-100" edge="1">
          <mxGeometry relative="1" as="geometry" />
        </mxCell>
        <mxCell id="DaWMpuimovxNfzw2H3QX-108" style="edgeStyle=orthogonalEdgeStyle;rounded=0;orthogonalLoop=1;jettySize=auto;html=1;entryX=0;entryY=0.5;entryDx=0;entryDy=0;" parent="1" source="DaWMpuimovxNfzw2H3QX-5" target="DaWMpuimovxNfzw2H3QX-106" edge="1">
          <mxGeometry relative="1" as="geometry" />
        </mxCell>
        <mxCell id="DaWMpuimovxNfzw2H3QX-5" value="&lt;font face=&quot;Courier New&quot; style=&quot;font-size: 21px;&quot;&gt;&lt;span style=&quot;font-size: 21px;&quot;&gt;aten/src/ATen&lt;/span&gt;&lt;/font&gt;" style="rounded=0;whiteSpace=wrap;html=1;fontSize=21;align=left;spacingLeft=12;fillColor=#FF3333;strokeColor=none;fontColor=#FFFFFF;fontStyle=1" parent="1" vertex="1">
          <mxGeometry x="641" y="357" width="213" height="31" as="geometry" />
        </mxCell>
        <mxCell id="DaWMpuimovxNfzw2H3QX-42" style="edgeStyle=orthogonalEdgeStyle;rounded=0;orthogonalLoop=1;jettySize=auto;html=1;entryX=0;entryY=0.5;entryDx=0;entryDy=0;" parent="1" source="DaWMpuimovxNfzw2H3QX-7" target="DaWMpuimovxNfzw2H3QX-41" edge="1">
          <mxGeometry relative="1" as="geometry" />
        </mxCell>
        <mxCell id="DaWMpuimovxNfzw2H3QX-44" style="edgeStyle=orthogonalEdgeStyle;rounded=0;orthogonalLoop=1;jettySize=auto;html=1;entryX=0;entryY=0.5;entryDx=0;entryDy=0;" parent="1" source="DaWMpuimovxNfzw2H3QX-7" target="DaWMpuimovxNfzw2H3QX-43" edge="1">
          <mxGeometry relative="1" as="geometry" />
        </mxCell>
        <mxCell id="DaWMpuimovxNfzw2H3QX-48" style="edgeStyle=orthogonalEdgeStyle;rounded=0;orthogonalLoop=1;jettySize=auto;html=1;entryX=0;entryY=0.5;entryDx=0;entryDy=0;" parent="1" source="DaWMpuimovxNfzw2H3QX-7" target="DaWMpuimovxNfzw2H3QX-47" edge="1">
          <mxGeometry relative="1" as="geometry" />
        </mxCell>
        <mxCell id="DaWMpuimovxNfzw2H3QX-50" style="edgeStyle=orthogonalEdgeStyle;rounded=0;orthogonalLoop=1;jettySize=auto;html=1;entryX=0;entryY=0.5;entryDx=0;entryDy=0;" parent="1" source="DaWMpuimovxNfzw2H3QX-7" target="DaWMpuimovxNfzw2H3QX-49" edge="1">
          <mxGeometry relative="1" as="geometry" />
        </mxCell>
        <mxCell id="DaWMpuimovxNfzw2H3QX-52" style="edgeStyle=orthogonalEdgeStyle;rounded=0;orthogonalLoop=1;jettySize=auto;html=1;entryX=0;entryY=0.5;entryDx=0;entryDy=0;" parent="1" source="DaWMpuimovxNfzw2H3QX-7" target="DaWMpuimovxNfzw2H3QX-51" edge="1">
          <mxGeometry relative="1" as="geometry" />
        </mxCell>
        <mxCell id="DaWMpuimovxNfzw2H3QX-59" style="edgeStyle=orthogonalEdgeStyle;rounded=0;orthogonalLoop=1;jettySize=auto;html=1;entryX=0;entryY=0.5;entryDx=0;entryDy=0;" parent="1" source="DaWMpuimovxNfzw2H3QX-7" target="DaWMpuimovxNfzw2H3QX-58" edge="1">
          <mxGeometry relative="1" as="geometry" />
        </mxCell>
        <mxCell id="DaWMpuimovxNfzw2H3QX-61" style="edgeStyle=orthogonalEdgeStyle;rounded=0;orthogonalLoop=1;jettySize=auto;html=1;entryX=0;entryY=0.5;entryDx=0;entryDy=0;" parent="1" source="DaWMpuimovxNfzw2H3QX-7" target="DaWMpuimovxNfzw2H3QX-60" edge="1">
          <mxGeometry relative="1" as="geometry" />
        </mxCell>
        <mxCell id="DaWMpuimovxNfzw2H3QX-63" style="edgeStyle=orthogonalEdgeStyle;rounded=0;orthogonalLoop=1;jettySize=auto;html=1;entryX=0;entryY=0.5;entryDx=0;entryDy=0;" parent="1" source="DaWMpuimovxNfzw2H3QX-7" target="DaWMpuimovxNfzw2H3QX-62" edge="1">
          <mxGeometry relative="1" as="geometry" />
        </mxCell>
        <mxCell id="DaWMpuimovxNfzw2H3QX-65" style="edgeStyle=orthogonalEdgeStyle;rounded=0;orthogonalLoop=1;jettySize=auto;html=1;entryX=0;entryY=0.5;entryDx=0;entryDy=0;" parent="1" source="DaWMpuimovxNfzw2H3QX-7" target="DaWMpuimovxNfzw2H3QX-64" edge="1">
          <mxGeometry relative="1" as="geometry" />
        </mxCell>
        <mxCell id="DaWMpuimovxNfzw2H3QX-7" value="&lt;font face=&quot;Courier New&quot;&gt;&lt;b&gt;csrc&lt;/b&gt;&lt;/font&gt;" style="rounded=0;whiteSpace=wrap;html=1;fontSize=20;align=left;spacingLeft=12;fillColor=#CCCCCC;strokeColor=none;" parent="1" vertex="1">
          <mxGeometry x="273" y="1209" width="110" height="31" as="geometry" />
        </mxCell>
        <mxCell id="DaWMpuimovxNfzw2H3QX-9" value="&lt;font face=&quot;Courier New&quot;&gt;&lt;b&gt;autograd&lt;/b&gt;&lt;/font&gt;" style="rounded=0;whiteSpace=wrap;html=1;fontSize=20;align=left;spacingLeft=12;fillColor=#CCCCCC;strokeColor=none;" parent="1" vertex="1">
          <mxGeometry x="274" y="425" width="198" height="31" as="geometry" />
        </mxCell>
        <mxCell id="DaWMpuimovxNfzw2H3QX-11" value="&lt;font face=&quot;Courier New&quot;&gt;&lt;b&gt;cuda&lt;/b&gt;&lt;/font&gt;" style="rounded=0;whiteSpace=wrap;html=1;fontSize=20;align=left;spacingLeft=12;fillColor=#CCCCCC;strokeColor=none;" parent="1" vertex="1">
          <mxGeometry x="273" y="467" width="199" height="31" as="geometry" />
        </mxCell>
        <mxCell id="DaWMpuimovxNfzw2H3QX-13" value="&lt;font face=&quot;Courier New&quot;&gt;&lt;b&gt;jit&lt;/b&gt;&lt;/font&gt;" style="rounded=0;whiteSpace=wrap;html=1;fontSize=20;align=left;spacingLeft=12;fillColor=#CCCCCC;strokeColor=none;" parent="1" vertex="1">
          <mxGeometry x="274" y="509" width="198" height="31" as="geometry" />
        </mxCell>
        <mxCell id="DaWMpuimovxNfzw2H3QX-15" value="&lt;font face=&quot;Courier New&quot;&gt;&lt;b&gt;optim&lt;/b&gt;&lt;/font&gt;" style="rounded=0;whiteSpace=wrap;html=1;fontSize=20;align=left;spacingLeft=12;fillColor=#CCCCCC;strokeColor=none;" parent="1" vertex="1">
          <mxGeometry x="274" y="551" width="198" height="31" as="geometry" />
        </mxCell>
        <mxCell id="DaWMpuimovxNfzw2H3QX-17" value="&lt;font face=&quot;Courier New&quot;&gt;&lt;b&gt;quantization&lt;/b&gt;&lt;/font&gt;" style="rounded=0;whiteSpace=wrap;html=1;fontSize=20;align=left;spacingLeft=12;fillColor=#CCCCCC;strokeColor=none;" parent="1" vertex="1">
          <mxGeometry x="272" y="593" width="199" height="31" as="geometry" />
        </mxCell>
        <mxCell id="DaWMpuimovxNfzw2H3QX-19" value="&lt;font face=&quot;Courier New&quot;&gt;&lt;b&gt;sparse&lt;/b&gt;&lt;/font&gt;" style="rounded=0;whiteSpace=wrap;html=1;fontSize=20;align=left;spacingLeft=12;fillColor=#CCCCCC;strokeColor=none;" parent="1" vertex="1">
          <mxGeometry x="272" y="633" width="199" height="31" as="geometry" />
        </mxCell>
        <mxCell id="DaWMpuimovxNfzw2H3QX-21" value="&lt;font face=&quot;Courier New&quot;&gt;&lt;b&gt;......&lt;/b&gt;&lt;/font&gt;" style="rounded=0;whiteSpace=wrap;html=1;fontSize=20;align=left;spacingLeft=12;fillColor=#CCCCCC;strokeColor=none;" parent="1" vertex="1">
          <mxGeometry x="272" y="673" width="199" height="31" as="geometry" />
        </mxCell>
        <mxCell id="DaWMpuimovxNfzw2H3QX-23" value="&lt;font face=&quot;Courier New&quot;&gt;_autograd.pyi&lt;/font&gt;" style="rounded=0;whiteSpace=wrap;html=1;fontSize=20;align=left;spacingLeft=12;fillColor=#CCCCCC;strokeColor=none;" parent="1" vertex="1">
          <mxGeometry x="383" y="976" width="197" height="31" as="geometry" />
        </mxCell>
        <mxCell id="DaWMpuimovxNfzw2H3QX-25" value="&lt;font face=&quot;Courier New&quot;&gt;&lt;b&gt;......&lt;/b&gt;&lt;/font&gt;" style="rounded=0;whiteSpace=wrap;html=1;fontSize=20;align=left;spacingLeft=12;fillColor=#CCCCCC;strokeColor=none;" parent="1" vertex="1">
          <mxGeometry x="383" y="1018" width="197" height="31" as="geometry" />
        </mxCell>
        <mxCell id="DaWMpuimovxNfzw2H3QX-29" value="" style="image;html=1;image=img/lib/clip_art/general/Full_Folder_128x128.png" parent="1" vertex="1">
          <mxGeometry x="349" y="938.5" width="28" height="28" as="geometry" />
        </mxCell>
        <mxCell id="DaWMpuimovxNfzw2H3QX-32" value="" style="image;html=1;image=img/lib/clip_art/general/Full_Folder_128x128.png" parent="1" vertex="1">
          <mxGeometry x="442" y="599" width="27" height="25" as="geometry" />
        </mxCell>
        <mxCell id="DaWMpuimovxNfzw2H3QX-33" value="" style="image;html=1;image=img/lib/clip_art/general/Full_Folder_128x128.png" parent="1" vertex="1">
          <mxGeometry x="442" y="554" width="27" height="25" as="geometry" />
        </mxCell>
        <mxCell id="DaWMpuimovxNfzw2H3QX-34" value="" style="image;html=1;image=img/lib/clip_art/general/Full_Folder_128x128.png" parent="1" vertex="1">
          <mxGeometry x="442" y="512" width="27" height="25" as="geometry" />
        </mxCell>
        <mxCell id="DaWMpuimovxNfzw2H3QX-35" value="" style="image;html=1;image=img/lib/clip_art/general/Full_Folder_128x128.png" parent="1" vertex="1">
          <mxGeometry x="442" y="470" width="27" height="25" as="geometry" />
        </mxCell>
        <mxCell id="DaWMpuimovxNfzw2H3QX-36" value="" style="image;html=1;image=img/lib/clip_art/general/Full_Folder_128x128.png" parent="1" vertex="1">
          <mxGeometry x="442" y="428" width="27" height="25" as="geometry" />
        </mxCell>
        <mxCell id="DaWMpuimovxNfzw2H3QX-37" value="" style="image;html=1;image=img/lib/clip_art/general/Full_Folder_128x128.png" parent="1" vertex="1">
          <mxGeometry x="444" y="636" width="27" height="25" as="geometry" />
        </mxCell>
        <mxCell id="DaWMpuimovxNfzw2H3QX-38" value="" style="image;html=1;image=img/lib/clip_art/general/Full_Folder_128x128.png" parent="1" vertex="1">
          <mxGeometry x="442" y="676" width="27" height="25" as="geometry" />
        </mxCell>
        <mxCell id="DaWMpuimovxNfzw2H3QX-39" value="" style="image;html=1;image=img/lib/clip_art/general/Full_Folder_128x128.png" parent="1" vertex="1">
          <mxGeometry x="349" y="1210.5" width="28" height="28" as="geometry" />
        </mxCell>
        <mxCell id="DaWMpuimovxNfzw2H3QX-40" value="" style="image;html=1;image=img/lib/clip_art/general/Full_Folder_128x128.png;fillColor=#FF3333;fontColor=#FFFFFF;fontStyle=1;fontSize=21;" parent="1" vertex="1">
          <mxGeometry x="241" y="363" width="27" height="25" as="geometry" />
        </mxCell>
        <mxCell id="DaWMpuimovxNfzw2H3QX-41" value="&lt;font face=&quot;Courier New&quot;&gt;&lt;b&gt;autograd&lt;/b&gt;&lt;/font&gt;" style="rounded=0;whiteSpace=wrap;html=1;fontSize=20;align=left;spacingLeft=12;fillColor=#CCCCCC;strokeColor=none;" parent="1" vertex="1">
          <mxGeometry x="383" y="1253" width="197" height="31" as="geometry" />
        </mxCell>
        <mxCell id="DaWMpuimovxNfzw2H3QX-43" value="&lt;b style=&quot;font-family: &amp;quot;Courier New&amp;quot;;&quot;&gt;jit&lt;/b&gt;" style="rounded=0;whiteSpace=wrap;html=1;fontSize=20;align=left;spacingLeft=12;fillColor=#CCCCCC;strokeColor=none;" parent="1" vertex="1">
          <mxGeometry x="383" y="1297" width="197" height="31" as="geometry" />
        </mxCell>
        <mxCell id="DaWMpuimovxNfzw2H3QX-47" value="&lt;b style=&quot;font-family: &amp;quot;Courier New&amp;quot;;&quot;&gt;lazy&lt;/b&gt;" style="rounded=0;whiteSpace=wrap;html=1;fontSize=20;align=left;spacingLeft=12;fillColor=#CCCCCC;strokeColor=none;" parent="1" vertex="1">
          <mxGeometry x="383" y="1341" width="197" height="31" as="geometry" />
        </mxCell>
        <mxCell id="DaWMpuimovxNfzw2H3QX-49" value="&lt;b style=&quot;font-family: &amp;quot;Courier New&amp;quot;;&quot;&gt;onnx&lt;/b&gt;" style="rounded=0;whiteSpace=wrap;html=1;fontSize=20;align=left;spacingLeft=12;fillColor=#CCCCCC;strokeColor=none;" parent="1" vertex="1">
          <mxGeometry x="383" y="1385" width="197" height="31" as="geometry" />
        </mxCell>
        <mxCell id="DaWMpuimovxNfzw2H3QX-51" value="&lt;font face=&quot;Courier New&quot;&gt;&lt;b&gt;......&lt;/b&gt;&lt;/font&gt;" style="rounded=0;whiteSpace=wrap;html=1;fontSize=20;align=left;spacingLeft=12;fillColor=#CCCCCC;strokeColor=none;" parent="1" vertex="1">
          <mxGeometry x="383" y="1429" width="197" height="31" as="geometry" />
        </mxCell>
        <mxCell id="DaWMpuimovxNfzw2H3QX-53" value="" style="image;html=1;image=img/lib/clip_art/general/Full_Folder_128x128.png" parent="1" vertex="1">
          <mxGeometry x="548" y="1256" width="27" height="25" as="geometry" />
        </mxCell>
        <mxCell id="DaWMpuimovxNfzw2H3QX-54" value="" style="image;html=1;image=img/lib/clip_art/general/Full_Folder_128x128.png" parent="1" vertex="1">
          <mxGeometry x="548" y="1300" width="27" height="25" as="geometry" />
        </mxCell>
        <mxCell id="DaWMpuimovxNfzw2H3QX-55" value="" style="image;html=1;image=img/lib/clip_art/general/Full_Folder_128x128.png" parent="1" vertex="1">
          <mxGeometry x="548" y="1344" width="27" height="25" as="geometry" />
        </mxCell>
        <mxCell id="DaWMpuimovxNfzw2H3QX-56" value="" style="image;html=1;image=img/lib/clip_art/general/Full_Folder_128x128.png" parent="1" vertex="1">
          <mxGeometry x="548" y="1388" width="27" height="25" as="geometry" />
        </mxCell>
        <mxCell id="DaWMpuimovxNfzw2H3QX-57" value="" style="image;html=1;image=img/lib/clip_art/general/Full_Folder_128x128.png" parent="1" vertex="1">
          <mxGeometry x="548" y="1432" width="27" height="25" as="geometry" />
        </mxCell>
        <mxCell id="DaWMpuimovxNfzw2H3QX-58" value="&lt;span style=&quot;font-family: &amp;quot;Courier New&amp;quot;;&quot;&gt;Module.cpp/.h&lt;/span&gt;" style="rounded=0;whiteSpace=wrap;html=1;fontSize=20;align=left;spacingLeft=12;fillColor=#CCCCCC;strokeColor=none;" parent="1" vertex="1">
          <mxGeometry x="383" y="1472" width="197" height="31" as="geometry" />
        </mxCell>
        <mxCell id="DaWMpuimovxNfzw2H3QX-60" value="&lt;span style=&quot;font-family: &amp;quot;Courier New&amp;quot;; font-weight: normal;&quot;&gt;Dtype.cpp/.h&lt;/span&gt;" style="rounded=0;whiteSpace=wrap;html=1;fontSize=20;align=left;spacingLeft=12;fillColor=#CCCCCC;strokeColor=none;fontStyle=1" parent="1" vertex="1">
          <mxGeometry x="383" y="1518" width="197" height="31" as="geometry" />
        </mxCell>
        <mxCell id="DaWMpuimovxNfzw2H3QX-62" value="&lt;span style=&quot;font-family: &amp;quot;Courier New&amp;quot;; font-weight: normal;&quot;&gt;Stream.cpp/.h&lt;/span&gt;" style="rounded=0;whiteSpace=wrap;html=1;fontSize=20;align=left;spacingLeft=12;fillColor=#CCCCCC;strokeColor=none;fontStyle=1" parent="1" vertex="1">
          <mxGeometry x="383" y="1564" width="197" height="31" as="geometry" />
        </mxCell>
        <mxCell id="DaWMpuimovxNfzw2H3QX-64" value="&lt;font face=&quot;Courier New&quot;&gt;&lt;span style=&quot;font-weight: 400;&quot;&gt;*.cpp/.h&lt;/span&gt;&lt;/font&gt;" style="rounded=0;whiteSpace=wrap;html=1;fontSize=20;align=left;spacingLeft=12;fillColor=#CCCCCC;strokeColor=none;fontStyle=1" parent="1" vertex="1">
          <mxGeometry x="383" y="1610" width="197" height="31" as="geometry" />
        </mxCell>
        <mxCell id="DaWMpuimovxNfzw2H3QX-67" value="&lt;font face=&quot;Courier New&quot;&gt;_tensor.py&lt;/font&gt;" style="rounded=0;whiteSpace=wrap;html=1;fontSize=20;align=left;spacingLeft=12;fillColor=#CCCCCC;strokeColor=none;" parent="1" vertex="1">
          <mxGeometry x="272" y="717" width="199" height="31" as="geometry" />
        </mxCell>
        <mxCell id="DaWMpuimovxNfzw2H3QX-69" value="&lt;font face=&quot;Courier New&quot;&gt;*.py&lt;/font&gt;" style="rounded=0;whiteSpace=wrap;html=1;fontSize=20;align=left;spacingLeft=12;fillColor=#CCCCCC;strokeColor=none;" parent="1" vertex="1">
          <mxGeometry x="272" y="760" width="199" height="31" as="geometry" />
        </mxCell>
        <mxCell id="DaWMpuimovxNfzw2H3QX-105" style="edgeStyle=orthogonalEdgeStyle;rounded=0;orthogonalLoop=1;jettySize=auto;html=1;entryX=0;entryY=0.5;entryDx=0;entryDy=0;exitX=0.5;exitY=1;exitDx=0;exitDy=0;" parent="1" source="DaWMpuimovxNfzw2H3QX-5" edge="1">
          <mxGeometry relative="1" as="geometry">
            <mxPoint x="817" y="394" as="sourcePoint" />
            <mxPoint x="854" y="1001" as="targetPoint" />
            <Array as="points">
              <mxPoint x="748" y="1001" />
            </Array>
          </mxGeometry>
        </mxCell>
        <mxCell id="DaWMpuimovxNfzw2H3QX-71" value="" style="image;html=1;image=img/lib/clip_art/general/Full_Folder_128x128.png;fillColor=#FF3333;fontColor=#FFFFFF;fontStyle=1;fontSize=21;" parent="1" vertex="1">
          <mxGeometry x="817" y="360" width="27" height="25" as="geometry" />
        </mxCell>
        <mxCell id="DaWMpuimovxNfzw2H3QX-73" value="&lt;font face=&quot;Courier New&quot;&gt;Tensor.h&lt;/font&gt;" style="rounded=0;whiteSpace=wrap;html=1;fontSize=20;align=left;spacingLeft=12;fillColor=#CCCCCC;strokeColor=none;" parent="1" vertex="1">
          <mxGeometry x="854" y="422" width="148" height="31" as="geometry" />
        </mxCell>
        <mxCell id="DaWMpuimovxNfzw2H3QX-75" value="&lt;font face=&quot;Courier New&quot;&gt;Device.h&lt;/font&gt;" style="rounded=0;whiteSpace=wrap;html=1;fontSize=20;align=left;spacingLeft=12;fillColor=#CCCCCC;strokeColor=none;" parent="1" vertex="1">
          <mxGeometry x="854" y="467" width="148" height="31" as="geometry" />
        </mxCell>
        <mxCell id="DaWMpuimovxNfzw2H3QX-77" value="&lt;font face=&quot;Courier New&quot;&gt;Scalar.h&lt;/font&gt;" style="rounded=0;whiteSpace=wrap;html=1;fontSize=20;align=left;spacingLeft=12;fillColor=#CCCCCC;strokeColor=none;" parent="1" vertex="1">
          <mxGeometry x="854" y="512" width="148" height="31" as="geometry" />
        </mxCell>
        <mxCell id="DaWMpuimovxNfzw2H3QX-79" value="&lt;font face=&quot;Courier New&quot;&gt;Layout.h&lt;/font&gt;" style="rounded=0;whiteSpace=wrap;html=1;fontSize=20;align=left;spacingLeft=12;fillColor=#CCCCCC;strokeColor=none;" parent="1" vertex="1">
          <mxGeometry x="854" y="557" width="148" height="31" as="geometry" />
        </mxCell>
        <mxCell id="DaWMpuimovxNfzw2H3QX-81" value="&lt;font face=&quot;Courier New&quot;&gt;Context.h&lt;/font&gt;" style="rounded=0;whiteSpace=wrap;html=1;fontSize=20;align=left;spacingLeft=12;fillColor=#CCCCCC;strokeColor=none;" parent="1" vertex="1">
          <mxGeometry x="854" y="602" width="148" height="31" as="geometry" />
        </mxCell>
        <mxCell id="DaWMpuimovxNfzw2H3QX-83" value="&lt;font face=&quot;Courier New&quot;&gt;*.h&lt;/font&gt;" style="rounded=0;whiteSpace=wrap;html=1;fontSize=20;align=left;spacingLeft=12;fillColor=#CCCCCC;strokeColor=none;" parent="1" vertex="1">
          <mxGeometry x="854" y="647" width="148" height="31" as="geometry" />
        </mxCell>
        <mxCell id="DaWMpuimovxNfzw2H3QX-90" style="edgeStyle=orthogonalEdgeStyle;rounded=0;orthogonalLoop=1;jettySize=auto;html=1;entryX=0;entryY=0.5;entryDx=0;entryDy=0;" parent="1" source="DaWMpuimovxNfzw2H3QX-85" target="DaWMpuimovxNfzw2H3QX-88" edge="1">
          <mxGeometry relative="1" as="geometry" />
        </mxCell>
        <mxCell id="DaWMpuimovxNfzw2H3QX-93" style="edgeStyle=orthogonalEdgeStyle;rounded=0;orthogonalLoop=1;jettySize=auto;html=1;entryX=0;entryY=0.5;entryDx=0;entryDy=0;" parent="1" source="DaWMpuimovxNfzw2H3QX-85" target="DaWMpuimovxNfzw2H3QX-91" edge="1">
          <mxGeometry relative="1" as="geometry" />
        </mxCell>
        <mxCell id="DaWMpuimovxNfzw2H3QX-95" style="edgeStyle=orthogonalEdgeStyle;rounded=0;orthogonalLoop=1;jettySize=auto;html=1;entryX=0;entryY=0.5;entryDx=0;entryDy=0;" parent="1" source="DaWMpuimovxNfzw2H3QX-85" target="DaWMpuimovxNfzw2H3QX-94" edge="1">
          <mxGeometry relative="1" as="geometry" />
        </mxCell>
        <mxCell id="DaWMpuimovxNfzw2H3QX-97" style="edgeStyle=orthogonalEdgeStyle;rounded=0;orthogonalLoop=1;jettySize=auto;html=1;entryX=0;entryY=0.5;entryDx=0;entryDy=0;" parent="1" source="DaWMpuimovxNfzw2H3QX-85" target="DaWMpuimovxNfzw2H3QX-96" edge="1">
          <mxGeometry relative="1" as="geometry" />
        </mxCell>
        <mxCell id="DaWMpuimovxNfzw2H3QX-99" style="edgeStyle=orthogonalEdgeStyle;rounded=0;orthogonalLoop=1;jettySize=auto;html=1;entryX=0;entryY=0.5;entryDx=0;entryDy=0;" parent="1" source="DaWMpuimovxNfzw2H3QX-85" target="DaWMpuimovxNfzw2H3QX-98" edge="1">
          <mxGeometry relative="1" as="geometry" />
        </mxCell>
        <mxCell id="DaWMpuimovxNfzw2H3QX-85" value="&lt;font face=&quot;Courier New&quot;&gt;&lt;b&gt;cuda&lt;/b&gt;&lt;/font&gt;" style="rounded=0;whiteSpace=wrap;html=1;fontSize=20;align=left;spacingLeft=12;fillColor=#CCCCCC;strokeColor=none;" parent="1" vertex="1">
          <mxGeometry x="854" y="692" width="110" height="31" as="geometry" />
        </mxCell>
        <mxCell id="DaWMpuimovxNfzw2H3QX-86" value="" style="image;html=1;image=img/lib/clip_art/general/Full_Folder_128x128.png" parent="1" vertex="1">
          <mxGeometry x="941" y="695" width="27" height="25" as="geometry" />
        </mxCell>
        <mxCell id="DaWMpuimovxNfzw2H3QX-88" value="&lt;font face=&quot;Courier New&quot;&gt;CUDAGraph.h&lt;/font&gt;" style="rounded=0;whiteSpace=wrap;html=1;fontSize=20;align=left;spacingLeft=12;fillColor=#CCCCCC;strokeColor=none;" parent="1" vertex="1">
          <mxGeometry x="964" y="732" width="208" height="31" as="geometry" />
        </mxCell>
        <mxCell id="DaWMpuimovxNfzw2H3QX-91" value="&lt;font face=&quot;Courier New&quot;&gt;CUDAContext.h&lt;/font&gt;" style="rounded=0;whiteSpace=wrap;html=1;fontSize=20;align=left;spacingLeft=12;fillColor=#CCCCCC;strokeColor=none;" parent="1" vertex="1">
          <mxGeometry x="964" y="772" width="208" height="31" as="geometry" />
        </mxCell>
        <mxCell id="DaWMpuimovxNfzw2H3QX-94" value="&lt;font face=&quot;Courier New&quot;&gt;CUDADevice.h&lt;/font&gt;" style="rounded=0;whiteSpace=wrap;html=1;fontSize=20;align=left;spacingLeft=12;fillColor=#CCCCCC;strokeColor=none;" parent="1" vertex="1">
          <mxGeometry x="964" y="812" width="209" height="31" as="geometry" />
        </mxCell>
        <mxCell id="DaWMpuimovxNfzw2H3QX-96" value="&lt;font face=&quot;Courier New&quot;&gt;CUDADataType.h&lt;/font&gt;" style="rounded=0;whiteSpace=wrap;html=1;fontSize=20;align=left;spacingLeft=12;fillColor=#CCCCCC;strokeColor=none;" parent="1" vertex="1">
          <mxGeometry x="964" y="852" width="209" height="31" as="geometry" />
        </mxCell>
        <mxCell id="DaWMpuimovxNfzw2H3QX-98" value="&lt;font face=&quot;Courier New&quot;&gt;*.h&lt;/font&gt;" style="rounded=0;whiteSpace=wrap;html=1;fontSize=20;align=left;spacingLeft=12;fillColor=#CCCCCC;strokeColor=none;" parent="1" vertex="1">
          <mxGeometry x="964" y="892" width="209" height="31" as="geometry" />
        </mxCell>
        <mxCell id="DaWMpuimovxNfzw2H3QX-100" value="&lt;font face=&quot;Courier New&quot;&gt;&lt;b&gt;hip&lt;/b&gt;&lt;/font&gt;" style="rounded=0;whiteSpace=wrap;html=1;fontSize=20;align=left;spacingLeft=12;fillColor=#CCCCCC;strokeColor=none;" parent="1" vertex="1">
          <mxGeometry x="854" y="935" width="110" height="31" as="geometry" />
        </mxCell>
        <mxCell id="DaWMpuimovxNfzw2H3QX-101" value="" style="image;html=1;image=img/lib/clip_art/general/Full_Folder_128x128.png" parent="1" vertex="1">
          <mxGeometry x="944" y="938" width="27" height="25" as="geometry" />
        </mxCell>
        <mxCell id="DaWMpuimovxNfzw2H3QX-103" value="&lt;font face=&quot;Courier New&quot;&gt;&lt;b&gt;......&lt;/b&gt;&lt;/font&gt;" style="rounded=0;whiteSpace=wrap;html=1;fontSize=20;align=left;spacingLeft=12;fillColor=#CCCCCC;strokeColor=none;" parent="1" vertex="1">
          <mxGeometry x="854" y="984" width="110" height="31" as="geometry" />
        </mxCell>
        <mxCell id="DaWMpuimovxNfzw2H3QX-104" value="" style="image;html=1;image=img/lib/clip_art/general/Full_Folder_128x128.png" parent="1" vertex="1">
          <mxGeometry x="944" y="987" width="27" height="25" as="geometry" />
        </mxCell>
        <mxCell id="DaWMpuimovxNfzw2H3QX-110" style="edgeStyle=orthogonalEdgeStyle;rounded=0;orthogonalLoop=1;jettySize=auto;html=1;entryX=0;entryY=0.5;entryDx=0;entryDy=0;" parent="1" source="DaWMpuimovxNfzw2H3QX-106" target="DaWMpuimovxNfzw2H3QX-109" edge="1">
          <mxGeometry relative="1" as="geometry" />
        </mxCell>
        <mxCell id="DaWMpuimovxNfzw2H3QX-112" style="edgeStyle=orthogonalEdgeStyle;rounded=0;orthogonalLoop=1;jettySize=auto;html=1;entryX=0;entryY=0.5;entryDx=0;entryDy=0;" parent="1" source="DaWMpuimovxNfzw2H3QX-106" target="DaWMpuimovxNfzw2H3QX-111" edge="1">
          <mxGeometry relative="1" as="geometry" />
        </mxCell>
        <mxCell id="DaWMpuimovxNfzw2H3QX-114" style="edgeStyle=orthogonalEdgeStyle;rounded=0;orthogonalLoop=1;jettySize=auto;html=1;entryX=0;entryY=0.5;entryDx=0;entryDy=0;" parent="1" source="DaWMpuimovxNfzw2H3QX-106" target="DaWMpuimovxNfzw2H3QX-113" edge="1">
          <mxGeometry relative="1" as="geometry" />
        </mxCell>
        <mxCell id="DaWMpuimovxNfzw2H3QX-116" style="edgeStyle=orthogonalEdgeStyle;rounded=0;orthogonalLoop=1;jettySize=auto;html=1;entryX=0;entryY=0.5;entryDx=0;entryDy=0;" parent="1" source="DaWMpuimovxNfzw2H3QX-106" target="DaWMpuimovxNfzw2H3QX-115" edge="1">
          <mxGeometry relative="1" as="geometry" />
        </mxCell>
        <mxCell id="DaWMpuimovxNfzw2H3QX-118" style="edgeStyle=orthogonalEdgeStyle;rounded=0;orthogonalLoop=1;jettySize=auto;html=1;entryX=0;entryY=0.5;entryDx=0;entryDy=0;" parent="1" source="DaWMpuimovxNfzw2H3QX-106" target="DaWMpuimovxNfzw2H3QX-117" edge="1">
          <mxGeometry relative="1" as="geometry" />
        </mxCell>
        <mxCell id="DaWMpuimovxNfzw2H3QX-120" style="edgeStyle=orthogonalEdgeStyle;rounded=0;orthogonalLoop=1;jettySize=auto;html=1;entryX=0;entryY=0.5;entryDx=0;entryDy=0;" parent="1" source="DaWMpuimovxNfzw2H3QX-106" target="DaWMpuimovxNfzw2H3QX-119" edge="1">
          <mxGeometry relative="1" as="geometry" />
        </mxCell>
        <mxCell id="DaWMpuimovxNfzw2H3QX-122" style="edgeStyle=orthogonalEdgeStyle;rounded=0;orthogonalLoop=1;jettySize=auto;html=1;entryX=0;entryY=0.5;entryDx=0;entryDy=0;" parent="1" source="DaWMpuimovxNfzw2H3QX-106" target="DaWMpuimovxNfzw2H3QX-121" edge="1">
          <mxGeometry relative="1" as="geometry" />
        </mxCell>
        <mxCell id="DaWMpuimovxNfzw2H3QX-125" style="edgeStyle=orthogonalEdgeStyle;rounded=0;orthogonalLoop=1;jettySize=auto;html=1;entryX=0;entryY=0.5;entryDx=0;entryDy=0;" parent="1" source="DaWMpuimovxNfzw2H3QX-106" target="DaWMpuimovxNfzw2H3QX-123" edge="1">
          <mxGeometry relative="1" as="geometry" />
        </mxCell>
        <mxCell id="DaWMpuimovxNfzw2H3QX-106" value="&lt;font face=&quot;Courier New&quot;&gt;&lt;b&gt;native&lt;/b&gt;&lt;/font&gt;" style="rounded=0;whiteSpace=wrap;html=1;fontSize=20;align=left;spacingLeft=12;fillColor=#CCCCCC;strokeColor=none;" parent="1" vertex="1">
          <mxGeometry x="854" y="1032" width="110" height="31" as="geometry" />
        </mxCell>
        <mxCell id="DaWMpuimovxNfzw2H3QX-107" value="" style="image;html=1;image=img/lib/clip_art/general/Full_Folder_128x128.png" parent="1" vertex="1">
          <mxGeometry x="944" y="1035" width="27" height="25" as="geometry" />
        </mxCell>
        <mxCell id="DaWMpuimovxNfzw2H3QX-109" value="&lt;font face=&quot;Courier New&quot;&gt;native_functions.yaml&lt;/font&gt;" style="rounded=0;whiteSpace=wrap;html=1;fontSize=20;align=left;spacingLeft=12;fillColor=#CCCCCC;strokeColor=none;" parent="1" vertex="1">
          <mxGeometry x="964" y="1084" width="296" height="31" as="geometry" />
        </mxCell>
        <mxCell id="DaWMpuimovxNfzw2H3QX-111" value="&lt;font face=&quot;Courier New&quot;&gt;Dropout.cpp&lt;/font&gt;" style="rounded=0;whiteSpace=wrap;html=1;fontSize=20;align=left;spacingLeft=12;fillColor=#CCCCCC;strokeColor=none;" parent="1" vertex="1">
          <mxGeometry x="964" y="1129" width="296" height="31" as="geometry" />
        </mxCell>
        <mxCell id="DaWMpuimovxNfzw2H3QX-113" value="&lt;font face=&quot;Courier New&quot;&gt;Linear.cpp&lt;/font&gt;" style="rounded=0;whiteSpace=wrap;html=1;fontSize=20;align=left;spacingLeft=12;fillColor=#CCCCCC;strokeColor=none;" parent="1" vertex="1">
          <mxGeometry x="964" y="1174" width="296" height="31" as="geometry" />
        </mxCell>
        <mxCell id="DaWMpuimovxNfzw2H3QX-115" value="&lt;font face=&quot;Courier New&quot;&gt;Loss.cpp&lt;/font&gt;" style="rounded=0;whiteSpace=wrap;html=1;fontSize=20;align=left;spacingLeft=12;fillColor=#CCCCCC;strokeColor=none;" parent="1" vertex="1">
          <mxGeometry x="964" y="1219" width="296" height="31" as="geometry" />
        </mxCell>
        <mxCell id="DaWMpuimovxNfzw2H3QX-117" value="&lt;font face=&quot;Courier New&quot;&gt;Pow.cpp&lt;/font&gt;" style="rounded=0;whiteSpace=wrap;html=1;fontSize=20;align=left;spacingLeft=12;fillColor=#CCCCCC;strokeColor=none;" parent="1" vertex="1">
          <mxGeometry x="964" y="1264" width="296" height="31" as="geometry" />
        </mxCell>
        <mxCell id="DaWMpuimovxNfzw2H3QX-119" value="&lt;font face=&quot;Courier New&quot;&gt;Pooling.cpp&lt;/font&gt;" style="rounded=0;whiteSpace=wrap;html=1;fontSize=20;align=left;spacingLeft=12;fillColor=#CCCCCC;strokeColor=none;" parent="1" vertex="1">
          <mxGeometry x="964" y="1309" width="296" height="31" as="geometry" />
        </mxCell>
        <mxCell id="DaWMpuimovxNfzw2H3QX-121" value="&lt;font face=&quot;Courier New&quot;&gt;*.cpp&lt;/font&gt;" style="rounded=0;whiteSpace=wrap;html=1;fontSize=20;align=left;spacingLeft=12;fillColor=#CCCCCC;strokeColor=none;" parent="1" vertex="1">
          <mxGeometry x="964" y="1354" width="296" height="31" as="geometry" />
        </mxCell>
        <mxCell id="DaWMpuimovxNfzw2H3QX-128" style="edgeStyle=orthogonalEdgeStyle;rounded=0;orthogonalLoop=1;jettySize=auto;html=1;entryX=0;entryY=0.5;entryDx=0;entryDy=0;" parent="1" source="DaWMpuimovxNfzw2H3QX-123" target="DaWMpuimovxNfzw2H3QX-127" edge="1">
          <mxGeometry relative="1" as="geometry" />
        </mxCell>
        <mxCell id="DaWMpuimovxNfzw2H3QX-130" style="edgeStyle=orthogonalEdgeStyle;rounded=0;orthogonalLoop=1;jettySize=auto;html=1;entryX=0;entryY=0.5;entryDx=0;entryDy=0;" parent="1" source="DaWMpuimovxNfzw2H3QX-123" target="DaWMpuimovxNfzw2H3QX-129" edge="1">
          <mxGeometry relative="1" as="geometry" />
        </mxCell>
        <mxCell id="DaWMpuimovxNfzw2H3QX-132" style="edgeStyle=orthogonalEdgeStyle;rounded=0;orthogonalLoop=1;jettySize=auto;html=1;entryX=0;entryY=0.5;entryDx=0;entryDy=0;" parent="1" source="DaWMpuimovxNfzw2H3QX-123" target="DaWMpuimovxNfzw2H3QX-131" edge="1">
          <mxGeometry relative="1" as="geometry" />
        </mxCell>
        <mxCell id="DaWMpuimovxNfzw2H3QX-134" style="edgeStyle=orthogonalEdgeStyle;rounded=0;orthogonalLoop=1;jettySize=auto;html=1;entryX=0;entryY=0.5;entryDx=0;entryDy=0;" parent="1" source="DaWMpuimovxNfzw2H3QX-123" target="DaWMpuimovxNfzw2H3QX-133" edge="1">
          <mxGeometry relative="1" as="geometry" />
        </mxCell>
        <mxCell id="DaWMpuimovxNfzw2H3QX-136" style="edgeStyle=orthogonalEdgeStyle;rounded=0;orthogonalLoop=1;jettySize=auto;html=1;entryX=0;entryY=0.5;entryDx=0;entryDy=0;" parent="1" source="DaWMpuimovxNfzw2H3QX-123" target="DaWMpuimovxNfzw2H3QX-135" edge="1">
          <mxGeometry relative="1" as="geometry" />
        </mxCell>
        <mxCell id="DaWMpuimovxNfzw2H3QX-138" style="edgeStyle=orthogonalEdgeStyle;rounded=0;orthogonalLoop=1;jettySize=auto;html=1;entryX=0;entryY=0.5;entryDx=0;entryDy=0;" parent="1" source="DaWMpuimovxNfzw2H3QX-123" target="DaWMpuimovxNfzw2H3QX-137" edge="1">
          <mxGeometry relative="1" as="geometry" />
        </mxCell>
        <mxCell id="DaWMpuimovxNfzw2H3QX-123" value="&lt;font face=&quot;Courier New&quot;&gt;&lt;b&gt;cuda&lt;/b&gt;&lt;/font&gt;" style="rounded=0;whiteSpace=wrap;html=1;fontSize=20;align=left;spacingLeft=12;fillColor=#CCCCCC;strokeColor=none;" parent="1" vertex="1">
          <mxGeometry x="964" y="1477" width="110" height="31" as="geometry" />
        </mxCell>
        <mxCell id="DaWMpuimovxNfzw2H3QX-124" value="" style="image;html=1;image=img/lib/clip_art/general/Full_Folder_128x128.png" parent="1" vertex="1">
          <mxGeometry x="1040" y="1480" width="27" height="25" as="geometry" />
        </mxCell>
        <mxCell id="DaWMpuimovxNfzw2H3QX-127" value="&lt;font face=&quot;Courier New&quot;&gt;AbsKernel.cu&lt;/font&gt;" style="rounded=0;whiteSpace=wrap;html=1;fontSize=20;align=left;spacingLeft=12;fillColor=#CCCCCC;strokeColor=none;" parent="1" vertex="1">
          <mxGeometry x="1074" y="1523" width="195" height="31" as="geometry" />
        </mxCell>
        <mxCell id="DaWMpuimovxNfzw2H3QX-129" value="&lt;font face=&quot;Courier New&quot;&gt;Dropout.cu&lt;/font&gt;" style="rounded=0;whiteSpace=wrap;html=1;fontSize=20;align=left;spacingLeft=12;fillColor=#CCCCCC;strokeColor=none;" parent="1" vertex="1">
          <mxGeometry x="1074" y="1565" width="195" height="31" as="geometry" />
        </mxCell>
        <mxCell id="DaWMpuimovxNfzw2H3QX-131" value="&lt;font face=&quot;Courier New&quot;&gt;Embedding.cu&lt;/font&gt;" style="rounded=0;whiteSpace=wrap;html=1;fontSize=20;align=left;spacingLeft=12;fillColor=#CCCCCC;strokeColor=none;" parent="1" vertex="1">
          <mxGeometry x="1074" y="1607" width="195" height="31" as="geometry" />
        </mxCell>
        <mxCell id="DaWMpuimovxNfzw2H3QX-133" value="&lt;font face=&quot;Courier New&quot;&gt;Loss.cu&lt;/font&gt;" style="rounded=0;whiteSpace=wrap;html=1;fontSize=20;align=left;spacingLeft=12;fillColor=#CCCCCC;strokeColor=none;" parent="1" vertex="1">
          <mxGeometry x="1074" y="1649" width="195" height="31" as="geometry" />
        </mxCell>
        <mxCell id="DaWMpuimovxNfzw2H3QX-135" value="&lt;font face=&quot;Courier New&quot;&gt;RNN.cu&lt;/font&gt;" style="rounded=0;whiteSpace=wrap;html=1;fontSize=20;align=left;spacingLeft=12;fillColor=#CCCCCC;strokeColor=none;" parent="1" vertex="1">
          <mxGeometry x="1074" y="1691" width="195" height="31" as="geometry" />
        </mxCell>
        <mxCell id="DaWMpuimovxNfzw2H3QX-137" value="&lt;font face=&quot;Courier New&quot;&gt;*.cu&lt;/font&gt;" style="rounded=0;whiteSpace=wrap;html=1;fontSize=20;align=left;spacingLeft=12;fillColor=#CCCCCC;strokeColor=none;" parent="1" vertex="1">
          <mxGeometry x="1074" y="1733" width="195" height="31" as="geometry" />
        </mxCell>
        <mxCell id="DaWMpuimovxNfzw2H3QX-144" style="edgeStyle=orthogonalEdgeStyle;rounded=0;orthogonalLoop=1;jettySize=auto;html=1;entryX=0;entryY=0.5;entryDx=0;entryDy=0;" parent="1" source="DaWMpuimovxNfzw2H3QX-139" target="DaWMpuimovxNfzw2H3QX-141" edge="1">
          <mxGeometry relative="1" as="geometry" />
        </mxCell>
        <mxCell id="DaWMpuimovxNfzw2H3QX-139" value="&lt;font face=&quot;Courier New&quot;&gt;&lt;b&gt;tools&lt;/b&gt;&lt;/font&gt;" style="rounded=0;whiteSpace=wrap;html=1;fontSize=20;align=left;spacingLeft=12;fillColor=#CCCCCC;strokeColor=none;" parent="1" vertex="1">
          <mxGeometry x="1602" y="-427" width="110" height="31" as="geometry" />
        </mxCell>
        <mxCell id="DaWMpuimovxNfzw2H3QX-140" value="" style="image;html=1;image=img/lib/clip_art/general/Full_Folder_128x128.png" parent="1" vertex="1">
          <mxGeometry x="1680" y="-424" width="27" height="25" as="geometry" />
        </mxCell>
        <mxCell id="DaWMpuimovxNfzw2H3QX-146" style="edgeStyle=orthogonalEdgeStyle;rounded=0;orthogonalLoop=1;jettySize=auto;html=1;entryX=0;entryY=0.5;entryDx=0;entryDy=0;" parent="1" source="DaWMpuimovxNfzw2H3QX-141" target="DaWMpuimovxNfzw2H3QX-145" edge="1">
          <mxGeometry relative="1" as="geometry" />
        </mxCell>
        <mxCell id="DaWMpuimovxNfzw2H3QX-148" style="edgeStyle=orthogonalEdgeStyle;rounded=0;orthogonalLoop=1;jettySize=auto;html=1;entryX=0;entryY=0.5;entryDx=0;entryDy=0;" parent="1" source="DaWMpuimovxNfzw2H3QX-141" target="DaWMpuimovxNfzw2H3QX-147" edge="1">
          <mxGeometry relative="1" as="geometry" />
        </mxCell>
        <mxCell id="DaWMpuimovxNfzw2H3QX-150" style="edgeStyle=orthogonalEdgeStyle;rounded=0;orthogonalLoop=1;jettySize=auto;html=1;entryX=0;entryY=0.5;entryDx=0;entryDy=0;" parent="1" source="DaWMpuimovxNfzw2H3QX-141" target="DaWMpuimovxNfzw2H3QX-149" edge="1">
          <mxGeometry relative="1" as="geometry" />
        </mxCell>
        <mxCell id="DaWMpuimovxNfzw2H3QX-141" value="&lt;font face=&quot;Courier New&quot;&gt;&lt;b&gt;autograd&lt;/b&gt;&lt;/font&gt;" style="rounded=0;whiteSpace=wrap;html=1;fontSize=20;align=left;spacingLeft=12;fillColor=#CCCCCC;strokeColor=none;" parent="1" vertex="1">
          <mxGeometry x="1712" y="-382" width="163" height="31" as="geometry" />
        </mxCell>
        <mxCell id="DaWMpuimovxNfzw2H3QX-143" value="" style="image;html=1;image=img/lib/clip_art/general/Full_Folder_128x128.png" parent="1" vertex="1">
          <mxGeometry x="1838" y="-379" width="27" height="25" as="geometry" />
        </mxCell>
        <mxCell id="DaWMpuimovxNfzw2H3QX-145" value="&lt;font face=&quot;Courier New&quot;&gt;derivatives.yaml&lt;/font&gt;" style="rounded=0;whiteSpace=wrap;html=1;fontSize=20;align=left;spacingLeft=12;fillColor=#CCCCCC;strokeColor=none;" parent="1" vertex="1">
          <mxGeometry x="1875" y="-337" width="224" height="31" as="geometry" />
        </mxCell>
        <mxCell id="DaWMpuimovxNfzw2H3QX-147" value="&lt;font face=&quot;Courier New&quot;&gt;gen_autograd.py&lt;/font&gt;" style="rounded=0;whiteSpace=wrap;html=1;fontSize=20;align=left;spacingLeft=12;fillColor=#CCCCCC;strokeColor=none;" parent="1" vertex="1">
          <mxGeometry x="1875" y="-292" width="224" height="31" as="geometry" />
        </mxCell>
        <mxCell id="DaWMpuimovxNfzw2H3QX-149" value="&lt;font face=&quot;Courier New&quot;&gt;gen_*.py&lt;/font&gt;" style="rounded=0;whiteSpace=wrap;html=1;fontSize=20;align=left;spacingLeft=12;fillColor=#CCCCCC;strokeColor=none;" parent="1" vertex="1">
          <mxGeometry x="1875" y="-247" width="224" height="31" as="geometry" />
        </mxCell>
        <mxCell id="DaWMpuimovxNfzw2H3QX-205" style="edgeStyle=orthogonalEdgeStyle;rounded=1;orthogonalLoop=1;jettySize=auto;html=1;entryX=1;entryY=0.25;entryDx=0;entryDy=0;exitX=0.25;exitY=1;exitDx=0;exitDy=0;strokeColor=#FF0000;strokeWidth=8;curved=0;" parent="1" source="DaWMpuimovxNfzw2H3QX-5" target="DaWMpuimovxNfzw2H3QX-186" edge="1">
          <mxGeometry width="716.5" height="1222" relative="1" as="geometry">
            <mxPoint x="861" y="377" as="sourcePoint" />
            <Array as="points">
              <mxPoint x="694" y="1314" />
            </Array>
          </mxGeometry>
        </mxCell>
        <mxCell id="6AVHY_ROivwO887Ykwhk-30" value="&lt;font style=&quot;font-size: 45px;&quot;&gt;&lt;b style=&quot;font-size: 45px;&quot;&gt;3&lt;/b&gt;&lt;/font&gt;" style="ellipse;whiteSpace=wrap;html=1;aspect=fixed;fillColor=#FF0000;fontColor=#FFFFFF;fontSize=45;strokeWidth=3;" parent="DaWMpuimovxNfzw2H3QX-205" vertex="1">
          <mxGeometry x="668.5" y="1014" width="48" height="48" as="geometry" />
        </mxCell>
        <mxCell id="6AVHY_ROivwO887Ykwhk-7" style="edgeStyle=orthogonalEdgeStyle;rounded=0;orthogonalLoop=1;jettySize=auto;html=1;entryX=0;entryY=0.5;entryDx=0;entryDy=0;" parent="1" source="DaWMpuimovxNfzw2H3QX-151" target="6AVHY_ROivwO887Ykwhk-4" edge="1">
          <mxGeometry relative="1" as="geometry" />
        </mxCell>
        <mxCell id="6AVHY_ROivwO887Ykwhk-10" style="edgeStyle=orthogonalEdgeStyle;rounded=0;orthogonalLoop=1;jettySize=auto;html=1;entryX=0;entryY=0.5;entryDx=0;entryDy=0;" parent="1" source="DaWMpuimovxNfzw2H3QX-151" target="6AVHY_ROivwO887Ykwhk-8" edge="1">
          <mxGeometry relative="1" as="geometry" />
        </mxCell>
        <mxCell id="6AVHY_ROivwO887Ykwhk-13" style="edgeStyle=orthogonalEdgeStyle;rounded=0;orthogonalLoop=1;jettySize=auto;html=1;entryX=0;entryY=0.5;entryDx=0;entryDy=0;" parent="1" source="DaWMpuimovxNfzw2H3QX-151" target="6AVHY_ROivwO887Ykwhk-11" edge="1">
          <mxGeometry relative="1" as="geometry" />
        </mxCell>
        <mxCell id="DaWMpuimovxNfzw2H3QX-151" value="&lt;font face=&quot;Courier New&quot; style=&quot;font-size: 21px;&quot;&gt;&lt;span style=&quot;font-size: 21px;&quot;&gt;c10&lt;/span&gt;&lt;/font&gt;" style="rounded=0;whiteSpace=wrap;html=1;fontSize=21;align=left;spacingLeft=12;fillColor=#FF3333;strokeColor=none;fontColor=#FFFFFF;fontStyle=1" parent="1" vertex="1">
          <mxGeometry x="1322" y="357" width="110" height="31" as="geometry" />
        </mxCell>
        <mxCell id="DaWMpuimovxNfzw2H3QX-152" value="" style="image;html=1;image=img/lib/clip_art/general/Full_Folder_128x128.png;fillColor=#FF3333;fontColor=#FFFFFF;fontStyle=1;fontSize=21;" parent="1" vertex="1">
          <mxGeometry x="1397" y="360" width="27" height="25" as="geometry" />
        </mxCell>
        <mxCell id="DaWMpuimovxNfzw2H3QX-153" value="&lt;font face=&quot;Courier New&quot;&gt;&lt;b&gt;caffe2&lt;/b&gt;&lt;/font&gt;" style="rounded=0;whiteSpace=wrap;html=1;fontSize=20;align=left;spacingLeft=12;fillColor=#CCCCCC;strokeColor=none;" parent="1" vertex="1">
          <mxGeometry x="1602" y="-152" width="126" height="31" as="geometry" />
        </mxCell>
        <mxCell id="DaWMpuimovxNfzw2H3QX-154" value="" style="image;html=1;image=img/lib/clip_art/general/Full_Folder_128x128.png" parent="1" vertex="1">
          <mxGeometry x="1694" y="-149" width="27" height="25" as="geometry" />
        </mxCell>
        <mxCell id="DaWMpuimovxNfzw2H3QX-157" value="&lt;font face=&quot;Courier New&quot;&gt;&lt;b&gt;scripts&lt;/b&gt;&lt;/font&gt;" style="rounded=0;whiteSpace=wrap;html=1;fontSize=20;align=left;spacingLeft=12;fillColor=#CCCCCC;strokeColor=none;" parent="1" vertex="1">
          <mxGeometry x="1602" y="-196" width="137" height="31" as="geometry" />
        </mxCell>
        <mxCell id="DaWMpuimovxNfzw2H3QX-158" value="" style="image;html=1;image=img/lib/clip_art/general/Full_Folder_128x128.png" parent="1" vertex="1">
          <mxGeometry x="1704" y="-193" width="27" height="25" as="geometry" />
        </mxCell>
        <mxCell id="DaWMpuimovxNfzw2H3QX-159" value="&lt;font face=&quot;Courier New&quot;&gt;&lt;b&gt;benchmark&lt;/b&gt;&lt;/font&gt;" style="rounded=0;whiteSpace=wrap;html=1;fontSize=20;align=left;spacingLeft=12;fillColor=#CCCCCC;strokeColor=none;" parent="1" vertex="1">
          <mxGeometry x="1602" y="-109" width="163" height="31" as="geometry" />
        </mxCell>
        <mxCell id="DaWMpuimovxNfzw2H3QX-160" value="" style="image;html=1;image=img/lib/clip_art/general/Full_Folder_128x128.png" parent="1" vertex="1">
          <mxGeometry x="1730" y="-106" width="27" height="25" as="geometry" />
        </mxCell>
        <mxCell id="DaWMpuimovxNfzw2H3QX-161" value="&lt;font face=&quot;Courier New&quot;&gt;&lt;b&gt;test&lt;/b&gt;&lt;/font&gt;" style="rounded=0;whiteSpace=wrap;html=1;fontSize=20;align=left;spacingLeft=12;fillColor=#CCCCCC;strokeColor=none;" parent="1" vertex="1">
          <mxGeometry x="1602" y="-66" width="106" height="31" as="geometry" />
        </mxCell>
        <mxCell id="DaWMpuimovxNfzw2H3QX-162" value="" style="image;html=1;image=img/lib/clip_art/general/Full_Folder_128x128.png" parent="1" vertex="1">
          <mxGeometry x="1673" y="-63" width="27" height="25" as="geometry" />
        </mxCell>
        <mxCell id="DaWMpuimovxNfzw2H3QX-164" value="&lt;font face=&quot;Courier New&quot;&gt;&lt;b&gt;......&lt;/b&gt;&lt;/font&gt;" style="rounded=0;whiteSpace=wrap;html=1;fontSize=20;align=left;spacingLeft=12;fillColor=#CCCCCC;strokeColor=none;" parent="1" vertex="1">
          <mxGeometry x="1602" y="-23" width="125" height="31" as="geometry" />
        </mxCell>
        <mxCell id="DaWMpuimovxNfzw2H3QX-165" value="" style="image;html=1;image=img/lib/clip_art/general/Full_Folder_128x128.png" parent="1" vertex="1">
          <mxGeometry x="1690" y="-20" width="27" height="25" as="geometry" />
        </mxCell>
        <mxCell id="DaWMpuimovxNfzw2H3QX-181" style="edgeStyle=orthogonalEdgeStyle;rounded=0;orthogonalLoop=1;jettySize=auto;html=1;entryX=0.5;entryY=0;entryDx=0;entryDy=0;strokeWidth=6;" parent="1" source="DaWMpuimovxNfzw2H3QX-179" target="DaWMpuimovxNfzw2H3QX-180" edge="1">
          <mxGeometry relative="1" as="geometry" />
        </mxCell>
        <mxCell id="DaWMpuimovxNfzw2H3QX-179" value="&lt;span style=&quot;font-size: 30px;&quot;&gt;&lt;b&gt;&lt;font face=&quot;Courier New&quot;&gt;import torch&lt;/font&gt;&lt;/b&gt;&lt;/span&gt;&lt;div&gt;&lt;span style=&quot;font-size: 30px;&quot;&gt;&lt;b&gt;&lt;font face=&quot;Courier New&quot;&gt;# ......&lt;/font&gt;&lt;/b&gt;&lt;/span&gt;&lt;/div&gt;" style="shape=note;whiteSpace=wrap;html=1;backgroundOutline=1;darkOpacity=0.05;strokeWidth=3;fillColor=#f8cecc;strokeColor=#b85450;align=left;spacingLeft=15;" parent="1" vertex="1">
          <mxGeometry x="-485.5" y="660" width="515" height="107" as="geometry" />
        </mxCell>
        <mxCell id="DaWMpuimovxNfzw2H3QX-180" value="&lt;font style=&quot;font-size: 30px;&quot;&gt;&lt;b&gt;Python Interpretor&lt;/b&gt;&lt;/font&gt;" style="rounded=0;whiteSpace=wrap;html=1;strokeWidth=3;fillColor=#4D4D4D;fontColor=#FFFFFF;" parent="1" vertex="1">
          <mxGeometry x="-485.5" y="850.6" width="515" height="60" as="geometry" />
        </mxCell>
        <mxCell id="DaWMpuimovxNfzw2H3QX-185" value="&lt;font face=&quot;Helvetica&quot; style=&quot;font-size: 36px;&quot;&gt;&lt;b&gt;Frontend&lt;/b&gt;&lt;/font&gt;" style="text;html=1;align=center;verticalAlign=middle;whiteSpace=wrap;rounded=0;fontColor=#999999;fontStyle=2" parent="1" vertex="1">
          <mxGeometry x="239" y="810" width="174" height="30" as="geometry" />
        </mxCell>
        <mxCell id="6AVHY_ROivwO887Ykwhk-24" style="edgeStyle=orthogonalEdgeStyle;rounded=0;orthogonalLoop=1;jettySize=auto;html=1;entryX=0.5;entryY=1;entryDx=0;entryDy=0;strokeWidth=8;strokeColor=#FF0000;" parent="1" source="DaWMpuimovxNfzw2H3QX-186" target="DaWMpuimovxNfzw2H3QX-189" edge="1">
          <mxGeometry relative="1" as="geometry" />
        </mxCell>
        <mxCell id="6AVHY_ROivwO887Ykwhk-36" style="edgeStyle=orthogonalEdgeStyle;rounded=0;orthogonalLoop=1;jettySize=auto;html=1;entryX=1;entryY=0.5;entryDx=0;entryDy=0;fontSize=11;strokeWidth=8;strokeColor=#000099;" parent="1" source="DaWMpuimovxNfzw2H3QX-186" target="DaWMpuimovxNfzw2H3QX-193" edge="1">
          <mxGeometry relative="1" as="geometry" />
        </mxCell>
        <mxCell id="DaWMpuimovxNfzw2H3QX-186" value="" style="rounded=0;whiteSpace=wrap;html=1;strokeWidth=3;fillColor=none;fontColor=#FFFFFF;strokeColor=#999999;dashed=1;" parent="1" vertex="1">
          <mxGeometry x="254" y="1200" width="341" height="456" as="geometry" />
        </mxCell>
        <mxCell id="DaWMpuimovxNfzw2H3QX-187" value="&lt;font style=&quot;font-size: 36px;&quot; face=&quot;Helvetica&quot;&gt;&lt;b&gt;Backend&lt;/b&gt;&lt;/font&gt;" style="text;html=1;align=center;verticalAlign=middle;whiteSpace=wrap;rounded=0;fontColor=#999999;fontStyle=2" parent="1" vertex="1">
          <mxGeometry x="293" y="1677" width="58" height="10" as="geometry" />
        </mxCell>
        <mxCell id="DaWMpuimovxNfzw2H3QX-189" value="" style="rounded=0;whiteSpace=wrap;html=1;strokeWidth=3;fillColor=none;fontColor=#FFFFFF;strokeColor=#999999;dashed=1;" parent="1" vertex="1">
          <mxGeometry x="254" y="922" width="341" height="151" as="geometry" />
        </mxCell>
        <mxCell id="DaWMpuimovxNfzw2H3QX-190" value="&lt;font face=&quot;Helvetica&quot; style=&quot;font-size: 36px;&quot;&gt;&lt;b&gt;Pybind Glue&lt;/b&gt;&lt;/font&gt;" style="text;html=1;align=left;verticalAlign=middle;whiteSpace=wrap;rounded=0;fontColor=#999999;fontStyle=2" parent="1" vertex="1">
          <mxGeometry x="248" y="1103" width="135" height="30" as="geometry" />
        </mxCell>
        <mxCell id="DaWMpuimovxNfzw2H3QX-213" style="edgeStyle=orthogonalEdgeStyle;rounded=0;orthogonalLoop=1;jettySize=auto;html=1;strokeWidth=5;" parent="1" source="DaWMpuimovxNfzw2H3QX-191" target="DaWMpuimovxNfzw2H3QX-198" edge="1">
          <mxGeometry relative="1" as="geometry" />
        </mxCell>
        <mxCell id="DaWMpuimovxNfzw2H3QX-191" value="" style="rounded=0;whiteSpace=wrap;html=1;strokeWidth=3;fillColor=#808080;fontColor=#FFFFFF;fillStyle=hatch;" parent="1" vertex="1">
          <mxGeometry x="-485.5" y="910.6" width="515" height="23" as="geometry" />
        </mxCell>
        <mxCell id="DaWMpuimovxNfzw2H3QX-197" value="&lt;b style=&quot;color: rgb(0, 0, 0);&quot;&gt;&lt;font style=&quot;font-size: 30px;&quot;&gt;libtorch.so&lt;/font&gt;&lt;/b&gt;" style="text;html=1;align=center;verticalAlign=middle;whiteSpace=wrap;rounded=0;fontColor=#CC0000;" parent="1" vertex="1">
          <mxGeometry x="-485.5" y="943.6" width="191" height="30" as="geometry" />
        </mxCell>
        <mxCell id="DaWMpuimovxNfzw2H3QX-216" style="edgeStyle=orthogonalEdgeStyle;rounded=0;orthogonalLoop=1;jettySize=auto;html=1;strokeWidth=4;" parent="1" source="DaWMpuimovxNfzw2H3QX-198" target="DaWMpuimovxNfzw2H3QX-214" edge="1">
          <mxGeometry relative="1" as="geometry">
            <Array as="points">
              <mxPoint x="-228" y="1057" />
              <mxPoint x="-100" y="1057" />
            </Array>
          </mxGeometry>
        </mxCell>
        <mxCell id="DaWMpuimovxNfzw2H3QX-198" value="&lt;b&gt;&lt;font style=&quot;font-size: 30px;&quot;&gt;dispatching&lt;/font&gt;&lt;/b&gt;" style="rounded=0;whiteSpace=wrap;html=1;" parent="1" vertex="1">
          <mxGeometry x="-403" y="981.6" width="350" height="60" as="geometry" />
        </mxCell>
        <mxCell id="DaWMpuimovxNfzw2H3QX-231" style="edgeStyle=orthogonalEdgeStyle;rounded=0;orthogonalLoop=1;jettySize=auto;html=1;entryX=0.5;entryY=0;entryDx=0;entryDy=0;strokeWidth=4;" parent="1" source="DaWMpuimovxNfzw2H3QX-199" target="DaWMpuimovxNfzw2H3QX-222" edge="1">
          <mxGeometry relative="1" as="geometry" />
        </mxCell>
        <mxCell id="DaWMpuimovxNfzw2H3QX-199" value="&lt;b&gt;&lt;font style=&quot;font-size: 30px;&quot;&gt;CUDA OP Impl.&lt;/font&gt;&lt;/b&gt;" style="rounded=0;whiteSpace=wrap;html=1;" parent="1" vertex="1">
          <mxGeometry x="-471.5" y="1086.6" width="253" height="46" as="geometry" />
        </mxCell>
        <mxCell id="DaWMpuimovxNfzw2H3QX-201" value="" style="rounded=0;whiteSpace=wrap;html=1;strokeWidth=3;fillColor=none;fontColor=#FFFFFF;strokeColor=#808080;dashed=1;" parent="1" vertex="1">
          <mxGeometry x="934" y="1470" width="341" height="316" as="geometry" />
        </mxCell>
        <mxCell id="DaWMpuimovxNfzw2H3QX-202" value="" style="rounded=0;whiteSpace=wrap;html=1;strokeWidth=3;fillColor=none;fontColor=#FFFFFF;strokeColor=#808080;dashed=1;" parent="1" vertex="1">
          <mxGeometry x="934" y="1075" width="341" height="323" as="geometry" />
        </mxCell>
        <mxCell id="DaWMpuimovxNfzw2H3QX-203" value="&lt;font face=&quot;Helvetica&quot; style=&quot;font-size: 36px;&quot;&gt;&lt;b&gt;CPU OP Impl.&lt;/b&gt;&lt;/font&gt;" style="text;html=1;align=center;verticalAlign=middle;whiteSpace=wrap;rounded=0;fontColor=#808080;fontStyle=2;rotation=-90;" parent="1" vertex="1">
          <mxGeometry x="1184" y="1219.5" width="234" height="30" as="geometry" />
        </mxCell>
        <mxCell id="DaWMpuimovxNfzw2H3QX-204" value="&lt;font face=&quot;Helvetica&quot; style=&quot;font-size: 36px;&quot;&gt;&lt;b&gt;GPU OP Impl.&lt;/b&gt;&lt;/font&gt;" style="text;html=1;align=center;verticalAlign=middle;whiteSpace=wrap;rounded=0;fontColor=#808080;fontStyle=2;rotation=-90;" parent="1" vertex="1">
          <mxGeometry x="1176.5" y="1613" width="249" height="30" as="geometry" />
        </mxCell>
        <mxCell id="DaWMpuimovxNfzw2H3QX-209" value="&lt;font face=&quot;Courier New&quot;&gt;&lt;b&gt;PyTorch&lt;/b&gt;&lt;/font&gt;" style="rounded=0;whiteSpace=wrap;html=1;fontSize=20;align=left;spacingLeft=12;fillColor=#CCCCCC;strokeColor=none;" parent="1" vertex="1">
          <mxGeometry x="859" y="228" width="138" height="31" as="geometry" />
        </mxCell>
        <mxCell id="DaWMpuimovxNfzw2H3QX-210" value="" style="image;html=1;image=img/lib/clip_art/general/Full_Folder_128x128.png" parent="1" vertex="1">
          <mxGeometry x="961" y="231" width="27" height="25" as="geometry" />
        </mxCell>
        <mxCell id="DaWMpuimovxNfzw2H3QX-212" value="&lt;font style=&quot;font-size: 33px;&quot; face=&quot;Courier New&quot;&gt;&lt;b style=&quot;font-size: 33px;&quot;&gt;#include&lt;/b&gt;&lt;/font&gt;" style="text;html=1;align=center;verticalAlign=middle;whiteSpace=wrap;rounded=0;fontColor=#FF0000;rotation=-90;fillColor=default;fontSize=33;" parent="1" vertex="1">
          <mxGeometry x="589" y="888" width="207" height="37" as="geometry" />
        </mxCell>
        <mxCell id="DaWMpuimovxNfzw2H3QX-214" value="&lt;b&gt;&lt;font style=&quot;font-size: 30px;&quot;&gt;CPU OP Impl.&lt;/font&gt;&lt;/b&gt;" style="rounded=0;whiteSpace=wrap;html=1;" parent="1" vertex="1">
          <mxGeometry x="-202.5" y="1086.6" width="204" height="46" as="geometry" />
        </mxCell>
        <mxCell id="DaWMpuimovxNfzw2H3QX-217" style="edgeStyle=orthogonalEdgeStyle;rounded=0;orthogonalLoop=1;jettySize=auto;html=1;entryX=0.5;entryY=0;entryDx=0;entryDy=0;strokeWidth=4;" parent="1" source="DaWMpuimovxNfzw2H3QX-198" target="DaWMpuimovxNfzw2H3QX-199" edge="1">
          <mxGeometry relative="1" as="geometry">
            <mxPoint x="-228.5" y="1041.6" as="sourcePoint" />
            <mxPoint x="-344.5" y="1122.6" as="targetPoint" />
            <Array as="points">
              <mxPoint x="-228" y="1057" />
              <mxPoint x="-345" y="1057" />
            </Array>
          </mxGeometry>
        </mxCell>
        <mxCell id="DaWMpuimovxNfzw2H3QX-222" value="&lt;b&gt;&lt;font style=&quot;font-size: 30px;&quot;&gt;CUDA Runtime&lt;/font&gt;&lt;/b&gt;" style="rounded=0;whiteSpace=wrap;html=1;fillColor=#009900;fontColor=#FFFFFF;" parent="1" vertex="1">
          <mxGeometry x="-471.5" y="1183.6" width="253" height="46" as="geometry" />
        </mxCell>
        <mxCell id="DaWMpuimovxNfzw2H3QX-229" style="edgeStyle=orthogonalEdgeStyle;rounded=0;orthogonalLoop=1;jettySize=auto;html=1;fontSize=11;strokeWidth=4;" parent="1" source="DaWMpuimovxNfzw2H3QX-223" target="DaWMpuimovxNfzw2H3QX-227" edge="1">
          <mxGeometry relative="1" as="geometry" />
        </mxCell>
        <mxCell id="DaWMpuimovxNfzw2H3QX-223" value="&lt;b&gt;&lt;font style=&quot;font-size: 30px;&quot;&gt;CUDA Driver&lt;/font&gt;&lt;/b&gt;" style="rounded=0;whiteSpace=wrap;html=1;fillColor=#009900;fontColor=#FFFFFF;" parent="1" vertex="1">
          <mxGeometry x="-471.5" y="1229.6" width="253" height="46" as="geometry" />
        </mxCell>
        <mxCell id="DaWMpuimovxNfzw2H3QX-227" value="" style="shape=image;verticalLabelPosition=bottom;labelBackgroundColor=default;verticalAlign=top;aspect=fixed;imageAspect=0;image=https://m.media-amazon.com/images/I/61sHx+SnD3L._AC_UF894,1000_QL80_.jpg;" parent="1" vertex="1">
          <mxGeometry x="-444.27" y="1328.6" width="198.53" height="116.81" as="geometry" />
        </mxCell>
        <mxCell id="DaWMpuimovxNfzw2H3QX-230" value="&lt;font color=&quot;#000000&quot; face=&quot;Helvetica&quot; style=&quot;font-size: 36px;&quot;&gt;&lt;b&gt;GPU Device&lt;/b&gt;&lt;/font&gt;" style="text;html=1;align=center;verticalAlign=middle;whiteSpace=wrap;rounded=0;fontColor=#3333FF;fontStyle=2" parent="1" vertex="1">
          <mxGeometry x="-460.5" y="1462.4099999999999" width="216" height="30" as="geometry" />
        </mxCell>
        <mxCell id="DaWMpuimovxNfzw2H3QX-232" value="&lt;font color=&quot;#000000&quot; face=&quot;Helvetica&quot; style=&quot;font-size: 36px;&quot;&gt;&lt;b&gt;PyTorch Process&lt;/b&gt;&lt;/font&gt;" style="text;html=1;align=center;verticalAlign=middle;whiteSpace=wrap;rounded=0;fontColor=#3333FF;fontStyle=2" parent="1" vertex="1">
          <mxGeometry x="-386" y="602.6" width="316" height="30" as="geometry" />
        </mxCell>
        <mxCell id="6AVHY_ROivwO887Ykwhk-4" value="&lt;font face=&quot;Courier New&quot;&gt;&lt;b&gt;cuda&lt;/b&gt;&lt;/font&gt;" style="rounded=0;whiteSpace=wrap;html=1;fontSize=20;align=left;spacingLeft=12;fillColor=#CCCCCC;strokeColor=none;" parent="1" vertex="1">
          <mxGeometry x="1427" y="467" width="110" height="31" as="geometry" />
        </mxCell>
        <mxCell id="6AVHY_ROivwO887Ykwhk-5" value="" style="image;html=1;image=img/lib/clip_art/general/Full_Folder_128x128.png" parent="1" vertex="1">
          <mxGeometry x="1501" y="470" width="27" height="25" as="geometry" />
        </mxCell>
        <mxCell id="6AVHY_ROivwO887Ykwhk-8" value="&lt;font face=&quot;Courier New&quot;&gt;&lt;b&gt;hip&lt;/b&gt;&lt;/font&gt;" style="rounded=0;whiteSpace=wrap;html=1;fontSize=20;align=left;spacingLeft=12;fillColor=#CCCCCC;strokeColor=none;" parent="1" vertex="1">
          <mxGeometry x="1427" y="512" width="110" height="31" as="geometry" />
        </mxCell>
        <mxCell id="6AVHY_ROivwO887Ykwhk-9" value="" style="image;html=1;image=img/lib/clip_art/general/Full_Folder_128x128.png" parent="1" vertex="1">
          <mxGeometry x="1501" y="515" width="27" height="25" as="geometry" />
        </mxCell>
        <mxCell id="6AVHY_ROivwO887Ykwhk-11" value="&lt;font face=&quot;Courier New&quot;&gt;&lt;b&gt;core&lt;/b&gt;&lt;/font&gt;" style="rounded=0;whiteSpace=wrap;html=1;fontSize=20;align=left;spacingLeft=12;fillColor=#CCCCCC;strokeColor=none;" parent="1" vertex="1">
          <mxGeometry x="1427" y="422" width="110" height="31" as="geometry" />
        </mxCell>
        <mxCell id="6AVHY_ROivwO887Ykwhk-12" value="" style="image;html=1;image=img/lib/clip_art/general/Full_Folder_128x128.png" parent="1" vertex="1">
          <mxGeometry x="1501" y="425" width="27" height="25" as="geometry" />
        </mxCell>
        <mxCell id="6AVHY_ROivwO887Ykwhk-14" value="&lt;span style=&quot;&quot;&gt;&lt;font style=&quot;font-size: 30px;&quot;&gt;Training / Infer Script&lt;/font&gt;&lt;/span&gt;" style="text;html=1;align=left;verticalAlign=middle;whiteSpace=wrap;rounded=0;fontColor=#CC0000;fontStyle=3" parent="1" vertex="1">
          <mxGeometry x="-290" y="710" width="322.53" height="64" as="geometry" />
        </mxCell>
        <mxCell id="6AVHY_ROivwO887Ykwhk-18" style="edgeStyle=orthogonalEdgeStyle;rounded=1;orthogonalLoop=1;jettySize=auto;html=1;entryX=1;entryY=0.5;entryDx=0;entryDy=0;exitX=0.25;exitY=1;exitDx=0;exitDy=0;strokeColor=#FF0000;strokeWidth=8;curved=0;" parent="1" source="DaWMpuimovxNfzw2H3QX-151" target="DaWMpuimovxNfzw2H3QX-186" edge="1">
          <mxGeometry relative="1" as="geometry">
            <mxPoint x="704" y="418" as="sourcePoint" />
            <Array as="points">
              <mxPoint x="1350" y="1428" />
            </Array>
            <mxPoint x="605" y="1438" as="targetPoint" />
          </mxGeometry>
        </mxCell>
        <mxCell id="6AVHY_ROivwO887Ykwhk-19" value="&lt;font style=&quot;font-size: 33px;&quot; face=&quot;Courier New&quot;&gt;&lt;b style=&quot;font-size: 33px;&quot;&gt;#include&lt;/b&gt;&lt;/font&gt;" style="text;html=1;align=center;verticalAlign=middle;whiteSpace=wrap;rounded=0;fontColor=#FF0000;rotation=-90;fillColor=default;fontSize=33;" parent="1" vertex="1">
          <mxGeometry x="1245" y="893" width="207" height="37" as="geometry" />
        </mxCell>
        <mxCell id="6AVHY_ROivwO887Ykwhk-22" style="edgeStyle=orthogonalEdgeStyle;rounded=1;orthogonalLoop=1;jettySize=auto;html=1;entryX=0.75;entryY=0;entryDx=0;entryDy=0;exitX=0.75;exitY=0;exitDx=0;exitDy=0;strokeColor=#FF0000;strokeWidth=8;curved=0;" parent="1" source="DaWMpuimovxNfzw2H3QX-151" target="DaWMpuimovxNfzw2H3QX-5" edge="1">
          <mxGeometry width="865" height="329.5" relative="1" as="geometry">
            <mxPoint x="1360" y="418" as="sourcePoint" />
            <Array as="points">
              <mxPoint x="1405" y="306" />
              <mxPoint x="801" y="306" />
            </Array>
            <mxPoint x="605" y="1438" as="targetPoint" />
          </mxGeometry>
        </mxCell>
        <mxCell id="6AVHY_ROivwO887Ykwhk-26" value="&lt;font style=&quot;font-size: 45px;&quot;&gt;&lt;b style=&quot;font-size: 45px;&quot;&gt;4&lt;/b&gt;&lt;/font&gt;" style="ellipse;whiteSpace=wrap;html=1;aspect=fixed;fillColor=#FF0000;fontColor=#FFFFFF;fontSize=45;strokeWidth=3;" parent="6AVHY_ROivwO887Ykwhk-22" vertex="1">
          <mxGeometry x="956" y="281.5" width="48" height="48" as="geometry" />
        </mxCell>
        <mxCell id="6AVHY_ROivwO887Ykwhk-23" value="&lt;font style=&quot;font-size: 33px;&quot; face=&quot;Courier New&quot;&gt;&lt;b style=&quot;font-size: 33px;&quot;&gt;#include&lt;/b&gt;&lt;/font&gt;" style="text;html=1;align=center;verticalAlign=middle;whiteSpace=wrap;rounded=0;fontColor=#FF0000;rotation=0;fillColor=default;fontSize=33;" parent="1" vertex="1">
          <mxGeometry x="1004" y="287" width="207" height="37" as="geometry" />
        </mxCell>
        <mxCell id="6AVHY_ROivwO887Ykwhk-25" style="edgeStyle=orthogonalEdgeStyle;rounded=0;orthogonalLoop=1;jettySize=auto;html=1;entryX=1;entryY=0.5;entryDx=0;entryDy=0;strokeWidth=8;strokeColor=#FF0000;exitX=0.916;exitY=-0.008;exitDx=0;exitDy=0;exitPerimeter=0;" parent="1" source="DaWMpuimovxNfzw2H3QX-189" target="DaWMpuimovxNfzw2H3QX-182" edge="1">
          <mxGeometry relative="1" as="geometry">
            <mxPoint x="435" y="1210" as="sourcePoint" />
            <mxPoint x="435" y="1083" as="targetPoint" />
          </mxGeometry>
        </mxCell>
        <mxCell id="6AVHY_ROivwO887Ykwhk-27" value="&lt;font style=&quot;font-size: 45px;&quot;&gt;&lt;b style=&quot;font-size: 45px;&quot;&gt;5&lt;/b&gt;&lt;/font&gt;" style="ellipse;whiteSpace=wrap;html=1;aspect=fixed;fillColor=#FF0000;fontColor=#FFFFFF;fontSize=45;strokeWidth=3;" parent="1" vertex="1">
          <mxGeometry x="1320" y="1054" width="48" height="48" as="geometry" />
        </mxCell>
        <mxCell id="6AVHY_ROivwO887Ykwhk-28" value="&lt;font style=&quot;font-size: 45px;&quot;&gt;&lt;b style=&quot;font-size: 45px;&quot;&gt;1&lt;/b&gt;&lt;/font&gt;" style="ellipse;whiteSpace=wrap;html=1;aspect=fixed;fillColor=#FF0000;fontColor=#FFFFFF;fontSize=45;strokeWidth=3;" parent="1" vertex="1">
          <mxGeometry x="542" y="723.5" width="48" height="48" as="geometry" />
        </mxCell>
        <mxCell id="6AVHY_ROivwO887Ykwhk-29" value="&lt;font style=&quot;font-size: 45px;&quot;&gt;&lt;b style=&quot;font-size: 45px;&quot;&gt;2&lt;/b&gt;&lt;/font&gt;" style="ellipse;whiteSpace=wrap;html=1;aspect=fixed;fillColor=#FF0000;fontColor=#FFFFFF;fontSize=45;strokeWidth=3;" parent="1" vertex="1">
          <mxGeometry x="400" y="1120.5" width="48" height="48" as="geometry" />
        </mxCell>
        <mxCell id="6AVHY_ROivwO887Ykwhk-31" value="&lt;font face=&quot;Courier New&quot; style=&quot;font-size: 21px;&quot;&gt;&lt;span style=&quot;font-size: 21px;&quot;&gt;......&lt;/span&gt;&lt;/font&gt;" style="rounded=0;whiteSpace=wrap;html=1;fontSize=21;align=left;spacingLeft=12;fillColor=#FF3333;strokeColor=none;fontColor=#FFFFFF;fontStyle=1" parent="1" vertex="1">
          <mxGeometry x="1561" y="360" width="125" height="31" as="geometry" />
        </mxCell>
        <mxCell id="6AVHY_ROivwO887Ykwhk-32" value="" style="image;html=1;image=img/lib/clip_art/general/Full_Folder_128x128.png;fillColor=#FF3333;fontColor=#FFFFFF;fontStyle=1;fontSize=21;" parent="1" vertex="1">
          <mxGeometry x="1649" y="363" width="27" height="25" as="geometry" />
        </mxCell>
        <mxCell id="6AVHY_ROivwO887Ykwhk-37" style="edgeStyle=orthogonalEdgeStyle;rounded=0;orthogonalLoop=1;jettySize=auto;html=1;entryX=1;entryY=0.5;entryDx=0;entryDy=0;fontSize=11;strokeWidth=8;exitX=0;exitY=0.5;exitDx=0;exitDy=0;strokeColor=#000099;" parent="1" source="DaWMpuimovxNfzw2H3QX-189" target="DaWMpuimovxNfzw2H3QX-191" edge="1">
          <mxGeometry relative="1" as="geometry">
            <mxPoint x="264" y="1438" as="sourcePoint" />
            <mxPoint x="40" y="1053" as="targetPoint" />
          </mxGeometry>
        </mxCell>
        <mxCell id="6AVHY_ROivwO887Ykwhk-38" style="edgeStyle=orthogonalEdgeStyle;rounded=0;orthogonalLoop=1;jettySize=auto;html=1;fontSize=11;strokeWidth=8;strokeColor=#000099;" parent="1" edge="1">
          <mxGeometry relative="1" as="geometry">
            <mxPoint x="232" y="585" as="sourcePoint" />
            <mxPoint x="-234" y="695" as="targetPoint" />
            <Array as="points">
              <mxPoint x="116" y="585" />
              <mxPoint x="116" y="695" />
            </Array>
          </mxGeometry>
        </mxCell>
        <mxCell id="6AVHY_ROivwO887Ykwhk-39" value="&lt;font style=&quot;font-size: 45px;&quot;&gt;&lt;b style=&quot;font-size: 45px;&quot;&gt;a&lt;/b&gt;&lt;/font&gt;" style="ellipse;whiteSpace=wrap;html=1;aspect=fixed;fillColor=#000099;fontColor=#FFFFFF;fontSize=45;strokeWidth=3;" parent="1" vertex="1">
          <mxGeometry x="92" y="610" width="48" height="48" as="geometry" />
        </mxCell>
        <mxCell id="6AVHY_ROivwO887Ykwhk-40" value="&lt;font style=&quot;font-size: 45px;&quot;&gt;&lt;b style=&quot;font-size: 45px;&quot;&gt;b&lt;/b&gt;&lt;/font&gt;" style="ellipse;whiteSpace=wrap;html=1;aspect=fixed;fillColor=#000099;fontColor=#FFFFFF;fontSize=45;strokeWidth=3;" parent="1" vertex="1">
          <mxGeometry x="116" y="935" width="48" height="48" as="geometry" />
        </mxCell>
        <mxCell id="6AVHY_ROivwO887Ykwhk-41" value="&lt;font style=&quot;font-size: 45px;&quot;&gt;&lt;b style=&quot;font-size: 45px;&quot;&gt;c&lt;/b&gt;&lt;/font&gt;" style="ellipse;whiteSpace=wrap;html=1;aspect=fixed;fillColor=#000099;fontColor=#FFFFFF;fontSize=45;strokeWidth=3;" parent="1" vertex="1">
          <mxGeometry x="116" y="1227" width="48" height="48" as="geometry" />
        </mxCell>
        <mxCell id="6AVHY_ROivwO887Ykwhk-47" value="" style="endArrow=none;html=1;rounded=1;entryX=0.5;entryY=1;entryDx=0;entryDy=0;exitX=0;exitY=0.5;exitDx=0;exitDy=0;edgeStyle=orthogonalEdgeStyle;curved=0;" parent="1" source="DaWMpuimovxNfzw2H3QX-5" target="DaWMpuimovxNfzw2H3QX-209" edge="1">
          <mxGeometry width="50" height="50" relative="1" as="geometry">
            <mxPoint x="748" y="377" as="sourcePoint" />
            <mxPoint x="928" y="259" as="targetPoint" />
            <Array as="points">
              <mxPoint x="579" y="373" />
              <mxPoint x="579" y="271" />
              <mxPoint x="928" y="271" />
            </Array>
          </mxGeometry>
        </mxCell>
        <mxCell id="6AVHY_ROivwO887Ykwhk-48" value="" style="endArrow=none;html=1;rounded=1;exitX=0;exitY=0.5;exitDx=0;exitDy=0;entryX=0.5;entryY=1;entryDx=0;entryDy=0;edgeStyle=orthogonalEdgeStyle;curved=0;" parent="1" source="6AVHY_ROivwO887Ykwhk-31" target="DaWMpuimovxNfzw2H3QX-209" edge="1">
          <mxGeometry width="50" height="50" relative="1" as="geometry">
            <mxPoint x="1624" y="380" as="sourcePoint" />
            <mxPoint x="928" y="259" as="targetPoint" />
            <Array as="points">
              <mxPoint x="1516" y="376" />
              <mxPoint x="1516" y="273" />
              <mxPoint x="928" y="273" />
            </Array>
          </mxGeometry>
        </mxCell>
        <mxCell id="6AVHY_ROivwO887Ykwhk-50" value="" style="endArrow=none;html=1;rounded=1;entryX=0.5;entryY=1;entryDx=0;entryDy=0;exitX=0;exitY=0.5;exitDx=0;exitDy=0;edgeStyle=orthogonalEdgeStyle;curved=0;" parent="1" source="DaWMpuimovxNfzw2H3QX-151" target="DaWMpuimovxNfzw2H3QX-209" edge="1">
          <mxGeometry width="50" height="50" relative="1" as="geometry">
            <mxPoint x="1377" y="377" as="sourcePoint" />
            <mxPoint x="928" y="259" as="targetPoint" />
            <Array as="points">
              <mxPoint x="1286" y="373" />
              <mxPoint x="1286" y="273" />
              <mxPoint x="928" y="273" />
            </Array>
          </mxGeometry>
        </mxCell>
      </root>
    </mxGraphModel>
  </diagram>
</mxfile>
